<?xml version="1.0" standalone="no"?>
<!DOCTYPE svg PUBLIC "-//W3C//DTD SVG 20010904//EN"
 "http://www.w3.org/TR/2001/REC-SVG-20010904/DTD/svg10.dtd">
<svg version="1.0" xmlns="http://www.w3.org/2000/svg"
 width="3861.000000pt" height="2208.000000pt" viewBox="0 0 3861.000000 2208.000000"
 preserveAspectRatio="xMidYMid meet">
<metadata>
Created by potrace 1.16, written by Peter Selinger 2001-2019
</metadata>
<g transform="translate(0.000000,2208.000000) scale(0.100000,-0.100000)"
fill="#000000" stroke="none">
<path d="M11905 21553 c-170 -8 -319 -18 -330 -23 -11 -4 -117 -16 -235 -25
-118 -9 -216 -21 -218 -26 -2 -5 -22 -9 -45 -9 -56 0 -207 -20 -232 -30 -11
-5 -78 -17 -150 -26 -71 -9 -134 -20 -140 -24 -5 -4 -59 -13 -118 -20 -59 -7
-110 -17 -113 -21 -2 -4 -12 -5 -20 -2 -8 3 -25 1 -37 -5 -12 -6 -65 -16 -117
-22 -52 -7 -100 -16 -105 -20 -6 -5 -55 -16 -110 -25 -55 -9 -108 -20 -117
-25 -10 -6 -26 -10 -37 -10 -11 0 -21 -4 -23 -10 -1 -5 -37 -14 -78 -20 -41
-6 -84 -15 -95 -20 -11 -6 -47 -16 -80 -25 -168 -41 -222 -55 -240 -64 -11 -6
-47 -17 -80 -26 -73 -19 -76 -20 -95 -28 -8 -4 -37 -11 -65 -17 -27 -6 -54
-15 -60 -19 -5 -5 -41 -16 -80 -26 -38 -10 -74 -21 -80 -25 -5 -4 -40 -15 -77
-25 -38 -10 -68 -22 -68 -26 0 -5 -8 -9 -17 -9 -10 0 -30 -6 -45 -14 -15 -8
-40 -17 -57 -21 -17 -4 -31 -11 -31 -15 0 -5 -17 -12 -37 -16 -21 -3 -47 -12
-58 -18 -11 -7 -42 -19 -70 -26 -27 -7 -59 -19 -70 -26 -11 -6 -38 -17 -60
-24 -22 -7 -44 -16 -50 -20 -5 -4 -36 -16 -67 -26 -32 -10 -58 -21 -58 -25 0
-3 -20 -12 -45 -19 -25 -7 -45 -17 -45 -22 0 -5 -4 -7 -9 -4 -5 4 -22 0 -38
-8 -15 -8 -64 -32 -108 -52 -44 -21 -82 -41 -83 -46 -2 -4 -8 -6 -13 -2 -5 3
-9 1 -9 -3 0 -5 -20 -15 -45 -22 -25 -7 -45 -17 -45 -21 0 -5 -14 -11 -30 -15
-17 -4 -36 -12 -43 -18 -6 -7 -30 -18 -52 -26 -22 -7 -107 -47 -190 -88 -216
-108 -260 -132 -263 -143 -2 -6 -9 -10 -16 -10 -8 0 -25 -9 -38 -20 -14 -10
-28 -16 -32 -13 -3 3 -6 2 -6 -3 0 -6 -16 -16 -35 -23 -19 -7 -35 -16 -35 -20
0 -4 -16 -13 -35 -20 -19 -7 -35 -17 -35 -22 0 -5 -3 -8 -7 -7 -10 1 -63 -24
-128 -62 -27 -16 -61 -35 -75 -42 -62 -32 -126 -74 -141 -90 -9 -10 -21 -18
-26 -18 -6 0 -27 -13 -48 -30 -21 -16 -44 -30 -51 -30 -8 0 -14 -4 -14 -10 0
-5 -17 -17 -37 -27 -21 -9 -44 -23 -52 -31 -8 -8 -24 -18 -35 -23 -12 -5 -41
-22 -66 -38 -25 -16 -74 -46 -109 -68 -35 -21 -71 -48 -81 -60 -10 -13 -22
-23 -26 -23 -5 0 -25 -14 -44 -30 -19 -16 -38 -30 -42 -30 -5 0 -17 -8 -28
-17 -11 -10 -29 -26 -40 -35 -11 -10 -22 -18 -25 -18 -7 0 -166 -110 -183
-127 -8 -8 -26 -20 -40 -27 -15 -8 -37 -25 -49 -38 -12 -12 -36 -34 -54 -48
-18 -14 -51 -42 -74 -62 -23 -21 -46 -38 -50 -38 -7 0 -107 -81 -160 -128 -11
-10 -31 -25 -45 -34 -14 -8 -86 -71 -162 -139 -75 -68 -162 -146 -195 -174
-58 -50 -302 -285 -421 -405 -35 -36 -114 -116 -175 -177 -61 -62 -115 -113
-119 -113 -4 0 -8 -6 -8 -13 0 -7 -27 -41 -60 -76 -33 -35 -60 -67 -60 -72 0
-4 -8 -14 -18 -21 -22 -16 -232 -254 -232 -263 0 -3 -43 -56 -95 -118 -53 -62
-104 -123 -115 -137 -59 -73 -70 -89 -70 -98 0 -5 -11 -17 -25 -26 -14 -9 -23
-21 -20 -26 3 -4 -6 -17 -20 -28 -14 -11 -25 -23 -25 -27 0 -7 -106 -145 -135
-176 -8 -9 -15 -20 -15 -25 0 -6 -7 -19 -15 -29 -58 -78 -85 -116 -85 -122 0
-3 -7 -13 -15 -22 -8 -9 -23 -26 -34 -38 -20 -22 -71 -100 -126 -192 -16 -28
-33 -51 -38 -51 -4 0 -6 -3 -5 -7 1 -5 -20 -41 -47 -82 -79 -116 -84 -125 -96
-148 -7 -13 -16 -23 -21 -23 -5 0 -7 -4 -4 -9 3 -5 -5 -20 -17 -33 -13 -14
-29 -39 -36 -57 -8 -17 -17 -31 -21 -31 -5 0 -14 -16 -20 -35 -6 -19 -17 -41
-24 -48 -15 -15 -38 -55 -67 -119 -12 -27 -25 -48 -30 -48 -4 0 -13 -16 -19
-35 -6 -19 -16 -33 -21 -30 -5 4 -9 0 -9 -8 0 -15 -29 -79 -40 -87 -3 -3 -12
-20 -19 -37 -8 -18 -17 -33 -21 -33 -5 0 -19 -22 -31 -50 -12 -27 -26 -50 -31
-50 -4 0 -7 -3 -7 -7 3 -14 -34 -93 -43 -93 -4 0 -8 -4 -8 -9 0 -5 -13 -38
-30 -73 -40 -88 -54 -122 -52 -130 1 -5 -2 -8 -6 -8 -5 0 -15 -18 -22 -40 -7
-22 -16 -40 -20 -40 -4 0 -13 -18 -20 -40 -7 -22 -17 -40 -22 -40 -5 0 -6 -4
-3 -10 3 -5 2 -10 -3 -10 -6 0 -13 -16 -16 -35 -4 -19 -12 -40 -19 -47 -16
-16 -43 -74 -52 -110 -4 -16 -11 -28 -17 -28 -5 0 -6 -4 -3 -10 3 -5 2 -10 -3
-10 -5 0 -15 -20 -22 -45 -7 -25 -16 -45 -20 -45 -4 0 -12 -19 -19 -42 -7 -24
-18 -52 -25 -63 -7 -11 -16 -33 -20 -50 -4 -16 -16 -48 -26 -71 -11 -23 -25
-63 -32 -88 -7 -25 -15 -46 -19 -46 -4 0 -13 -22 -20 -50 -7 -27 -16 -50 -19
-50 -4 0 -13 -25 -20 -55 -7 -30 -17 -55 -22 -55 -4 0 -8 -9 -8 -20 0 -11 -5
-20 -11 -20 -5 0 -8 -4 -4 -9 3 -5 0 -13 -6 -16 -5 -4 -8 -13 -5 -21 3 -8 0
-14 -5 -14 -6 0 -9 -9 -6 -20 3 -11 1 -20 -4 -20 -5 0 -9 -9 -9 -20 0 -11 -4
-20 -8 -20 -5 0 -14 -24 -21 -52 -8 -29 -17 -57 -21 -63 -5 -5 -16 -39 -25
-75 -9 -36 -20 -69 -25 -75 -5 -5 -16 -39 -25 -75 -9 -36 -19 -72 -22 -80 -3
-8 -14 -44 -25 -80 -10 -36 -21 -74 -24 -85 -3 -11 -10 -44 -16 -74 -8 -38
-13 -49 -20 -40 -6 10 -7 7 -3 -9 4 -13 2 -28 -3 -35 -5 -7 -15 -46 -22 -87
-7 -41 -16 -77 -19 -80 -4 -3 -12 -25 -18 -50 -25 -100 -35 -136 -43 -155 -5
-11 -17 -67 -26 -125 -10 -58 -21 -107 -24 -110 -4 -3 -15 -57 -25 -120 -10
-63 -21 -117 -25 -120 -8 -5 -40 -198 -43 -255 -1 -16 -4 -32 -8 -35 -6 -5
-27 -139 -59 -395 -11 -88 -25 -182 -31 -210 -5 -27 -16 -135 -24 -240 -8
-104 -17 -206 -19 -225 -2 -19 -7 -116 -11 -215 -3 -99 -9 -205 -12 -235 -12
-116 -14 -692 -3 -705 8 -10 8 -19 -2 -34 -10 -16 -10 -23 0 -33 6 -6 12 -19
12 -27 0 -12 -3 -12 -12 -3 -7 7 -19 12 -28 12 -8 0 -28 7 -44 15 -56 30 -127
15 -178 -36 -37 -38 -47 -199 -13 -212 7 -3 15 -21 19 -40 4 -19 13 -40 21
-47 8 -7 15 -17 15 -23 0 -22 75 -100 109 -114 20 -7 47 -19 61 -25 14 -7 43
-17 64 -22 27 -8 45 -21 57 -41 24 -41 23 -49 -2 -24 -20 20 -22 20 -31 5 -6
-10 -7 -27 -4 -39 5 -21 2 -22 -47 -19 -41 3 -58 -1 -79 -17 -57 -46 -45 -173
22 -217 41 -27 159 -62 205 -60 24 1 31 -3 33 -22 2 -13 9 -21 15 -19 16 6 47
-11 47 -25 0 -6 7 -16 15 -22 8 -6 22 -47 31 -91 8 -44 19 -84 24 -90 4 -5 10
-25 13 -44 3 -18 10 -38 16 -44 6 -6 11 -21 11 -34 0 -13 3 -23 8 -23 4 0 7
-20 6 -45 0 -25 3 -45 7 -45 4 0 10 -12 13 -28 9 -41 11 -207 3 -210 -18 -6
-77 31 -125 79 -44 45 -52 58 -47 81 6 25 -7 89 -26 133 -5 11 -13 32 -19 48
-5 15 -14 27 -20 27 -5 0 -10 4 -10 9 0 14 -39 53 -85 83 -44 29 -115 51 -138
43 -8 -4 -17 1 -20 9 -5 12 -20 16 -57 16 -27 0 -50 -4 -50 -9 0 -5 -17 -11
-38 -15 -63 -10 -102 -70 -102 -156 0 -48 34 -151 54 -165 9 -7 16 -20 16 -29
0 -23 55 -70 118 -101 40 -20 70 -27 117 -27 75 0 141 10 174 27 21 11 28 8
76 -41 53 -52 78 -69 148 -100 l37 -17 1 -76 c1 -42 2 -102 4 -133 2 -32 1
-58 -2 -58 -10 0 -83 78 -83 89 0 6 -6 11 -13 11 -7 0 -23 10 -34 23 -50 55
-65 62 -138 62 -66 0 -72 -2 -107 -34 -21 -19 -35 -37 -33 -41 3 -5 -2 -10
-10 -14 -18 -7 -21 -76 -3 -94 7 -7 9 -12 4 -12 -4 0 5 -11 20 -25 15 -14 31
-25 35 -25 5 0 9 -6 9 -13 0 -30 140 -62 209 -46 43 10 81 27 93 43 11 15 95
-77 103 -113 4 -18 13 -44 21 -59 8 -15 14 -32 14 -39 0 -6 13 -38 29 -70 16
-32 46 -93 66 -136 41 -85 70 -113 110 -103 20 5 25 13 25 36 0 17 -5 30 -11
30 -5 0 -8 4 -4 10 3 5 -3 18 -14 29 -11 11 -16 22 -13 26 4 3 2 9 -3 13 -14
10 -35 49 -35 66 0 8 -6 16 -14 19 -8 3 -17 19 -21 36 -3 16 -13 35 -21 42
-37 31 -2 95 73 133 17 9 34 24 38 35 3 11 12 22 20 25 8 3 15 11 15 18 0 9
13 12 46 10 48 -4 134 15 134 29 0 5 6 9 14 9 12 0 112 63 126 79 3 3 17 12
33 20 15 8 27 21 27 28 0 7 7 16 15 19 8 4 15 11 15 16 0 5 10 23 21 40 45 63
14 182 -57 218 -16 8 -36 20 -45 27 -20 17 -101 11 -159 -12 -48 -19 -130 -95
-130 -120 0 -9 -7 -18 -15 -21 -8 -4 -15 -17 -15 -30 0 -12 -7 -27 -16 -32
-11 -6 -15 -18 -12 -35 3 -17 0 -28 -10 -32 -8 -3 -12 -13 -9 -25 3 -11 1 -23
-4 -26 -13 -8 -11 -64 3 -64 6 0 -22 -35 -63 -77 -41 -43 -81 -78 -89 -78 -16
0 -26 41 -36 150 -4 33 -10 64 -15 70 -5 5 -9 86 -9 180 l0 170 43 41 c24 23
46 48 50 56 3 9 23 17 50 20 44 5 147 61 147 80 0 5 5 6 10 3 6 -3 10 -2 10 2
0 5 11 21 26 36 21 23 25 35 22 79 -3 48 -6 54 -43 80 -65 45 -148 38 -209
-18 -20 -19 -33 -34 -29 -34 4 0 3 -4 -4 -8 -6 -4 -17 -30 -23 -57 -7 -28 -16
-65 -22 -84 -7 -23 -7 -35 0 -40 6 -4 0 -16 -16 -31 -14 -14 -23 -20 -20 -15
7 12 -8 141 -21 175 -5 14 -15 53 -22 88 -7 34 -17 62 -22 62 -5 0 7 17 27 37
20 21 36 41 36 45 0 19 57 63 78 60 12 -2 22 1 22 7 0 6 6 11 14 11 8 0 21 8
28 19 7 10 22 21 33 25 21 6 125 96 125 108 0 4 11 24 25 44 14 20 25 47 25
60 0 12 4 25 9 28 12 8 21 87 14 130 -7 42 -72 122 -112 138 -33 13 -151 26
-151 17 0 -4 -15 -13 -32 -20 -39 -15 -92 -65 -84 -78 3 -4 -3 -16 -14 -26
-11 -10 -20 -24 -20 -32 0 -7 -7 -25 -16 -38 -31 -48 -28 -276 5 -305 3 -3 11
-15 18 -26 10 -19 8 -25 -22 -51 -29 -26 -35 -28 -41 -14 -4 9 -6 23 -5 33 1
9 -3 19 -9 23 -5 3 -10 19 -10 34 0 15 -5 32 -10 37 -6 6 -15 36 -20 66 -10
62 -67 189 -99 221 -6 6 -11 24 -11 39 0 15 -4 28 -10 28 -5 0 -17 17 -27 37
-9 21 -19 41 -20 44 -2 4 4 6 14 5 12 0 19 7 21 23 2 13 0 21 -5 18 -4 -3 -9
50 -9 117 -4 353 -7 462 -17 474 -8 10 -7 16 3 22 8 5 10 14 5 26 -13 27 -13
118 0 126 7 5 7 13 -1 25 -8 13 -8 23 0 36 8 12 8 22 -1 37 -7 10 -9 21 -4 24
4 3 11 135 15 293 8 360 14 479 26 523 5 19 16 134 25 255 10 121 21 225 25
230 4 6 13 69 20 140 7 72 17 136 22 142 6 7 8 29 6 48 -2 19 -1 35 2 35 4 0
13 50 20 111 8 60 17 112 22 115 4 3 8 18 8 33 0 15 3 31 7 35 8 7 24 91 65
326 12 69 25 127 29 130 3 3 12 43 19 90 7 47 16 90 20 95 4 6 15 52 25 103
11 50 22 92 25 92 4 0 15 45 25 100 10 55 22 100 25 100 4 0 10 19 14 42 4 23
13 56 20 72 8 17 20 54 26 81 7 28 17 56 23 62 5 7 7 20 3 28 -3 8 -1 15 4 15
6 0 10 9 10 19 0 11 5 23 11 26 6 4 8 13 5 21 -3 8 -1 14 4 14 6 0 10 9 10 20
0 11 5 20 10 20 6 0 10 6 9 13 -1 6 0 19 3 27 18 47 68 213 68 223 0 7 6 23
13 37 8 14 22 56 32 93 10 37 21 67 26 67 4 0 13 25 19 55 6 30 16 57 21 61 5
3 7 10 4 15 -4 5 -2 9 4 9 5 0 12 18 16 40 4 22 13 47 21 54 8 8 14 20 14 27
0 7 11 36 25 65 14 30 28 67 31 84 4 16 11 30 16 30 6 0 8 7 4 15 -3 9 0 15
10 15 8 0 12 5 9 10 -3 6 -1 10 4 10 6 0 11 7 11 15 0 8 13 43 29 77 16 35 33
75 36 91 4 15 11 27 15 27 4 0 13 23 20 50 7 28 16 50 21 50 6 0 9 6 8 13 -2
14 29 89 41 97 4 3 15 26 25 53 10 26 22 47 26 47 5 0 9 7 9 15 0 8 14 41 30
73 17 33 30 65 30 71 0 6 5 11 11 11 5 0 7 5 4 10 -3 6 1 10 10 10 11 0 15 5
11 15 -3 8 -1 15 5 15 6 0 8 4 5 9 -4 5 -3 11 1 13 5 1 21 30 37 63 16 33 37
71 47 85 9 14 20 36 24 50 4 14 10 27 14 30 3 3 24 41 45 85 21 44 44 83 50
87 6 5 7 8 1 8 -7 0 -7 3 0 8 10 7 32 43 62 102 10 19 21 37 26 38 4 2 5 8 1
13 -3 5 2 9 11 9 9 0 15 6 13 12 -3 7 0 18 6 25 29 33 34 41 29 47 -4 3 -2 6
4 6 6 0 17 15 24 33 7 17 32 60 56 94 24 34 43 64 43 67 0 9 94 161 105 168 5
4 6 8 2 8 -8 0 2 13 36 51 9 10 17 22 17 27 0 4 16 27 35 51 19 24 35 48 35
52 0 5 8 17 18 27 10 10 26 34 35 55 10 20 22 37 27 37 6 0 10 4 10 10 0 9 46
76 82 121 7 9 18 23 23 31 52 78 89 128 96 128 5 0 8 3 8 8 -3 20 2 32 16 32
8 0 15 7 15 16 0 9 12 28 28 43 15 15 37 40 49 57 12 16 42 55 68 86 25 31 45
61 45 67 0 5 8 16 18 23 11 7 21 18 23 24 4 11 73 92 170 199 25 27 69 80 98
117 29 37 84 100 122 140 38 40 93 99 122 131 62 69 572 581 614 617 17 14 74
66 129 117 54 50 126 114 159 142 33 29 71 62 85 74 14 13 43 36 65 52 22 17
47 38 55 47 8 9 47 42 85 72 39 31 79 65 90 76 12 11 24 20 29 20 4 0 34 21
67 48 32 26 75 59 96 75 73 52 85 62 111 89 15 15 43 34 62 42 19 8 31 15 26
16 -5 0 27 24 70 53 43 30 116 79 161 110 45 31 85 57 88 57 6 0 40 27 72 58
13 12 26 22 29 22 5 0 96 60 129 85 10 8 25 15 31 15 7 0 19 6 26 14 8 7 32
23 54 35 21 12 80 46 129 76 50 30 105 61 123 70 18 8 35 20 37 27 3 7 40 31
82 53 43 22 83 46 91 52 7 7 24 16 38 19 13 3 24 10 24 14 0 9 100 54 118 53
7 -1 11 1 8 4 -3 3 47 32 112 64 64 33 122 63 128 68 6 5 20 12 32 15 12 4 22
11 22 16 0 5 14 11 30 15 16 4 30 10 30 15 0 5 10 12 23 16 12 3 29 12 37 19
8 7 39 20 68 31 28 10 52 22 52 26 0 4 4 8 10 8 5 0 39 14 73 30 35 17 67 30
71 30 4 0 32 11 62 25 30 14 58 25 62 25 4 0 23 8 42 19 19 10 52 24 73 30 21
7 63 26 95 42 31 16 63 29 70 29 6 0 12 4 12 9 0 5 23 15 50 22 28 7 50 16 50
20 0 3 20 12 45 19 25 7 45 17 45 22 0 5 4 7 9 4 4 -3 27 3 49 14 23 11 50 20
62 20 11 0 20 4 20 9 0 5 21 14 47 20 26 7 66 21 90 32 24 11 58 22 76 26 17
3 37 9 42 13 6 4 42 15 80 25 39 10 75 21 80 25 6 4 39 15 75 24 36 10 70 24
77 33 6 8 13 13 15 12 5 -4 142 33 153 42 6 4 37 12 70 19 33 7 62 16 65 19 3
4 43 16 90 25 47 10 90 22 95 26 6 5 39 14 75 20 36 7 70 16 75 20 6 4 52 15
104 24 51 10 101 22 110 26 9 5 70 18 136 29 212 35 374 68 387 78 7 6 72 18
143 28 72 9 139 20 150 25 11 5 74 14 140 20 66 6 129 15 140 20 42 18 734 78
917 79 68 1 119 5 123 11 8 13 862 13 870 0 3 -4 62 -9 133 -10 70 -1 143 -3
162 -5 19 -1 96 -6 170 -10 168 -9 173 -10 185 -17 6 -3 48 -8 95 -12 197 -15
316 -28 335 -36 11 -4 75 -14 143 -21 67 -6 122 -16 122 -20 0 -5 15 -9 34 -9
62 0 271 -32 278 -43 6 -9 94 -27 393 -78 66 -11 129 -24 140 -29 11 -5 54
-14 95 -21 41 -7 86 -18 100 -24 14 -7 58 -18 98 -25 39 -7 72 -16 72 -20 0
-4 43 -15 95 -25 52 -11 95 -22 95 -26 0 -3 28 -12 63 -19 34 -7 67 -16 72
-20 6 -4 43 -16 83 -25 39 -10 72 -21 72 -26 0 -4 33 -18 73 -29 39 -12 81
-25 92 -30 11 -4 67 -22 125 -39 58 -17 119 -36 135 -42 17 -6 59 -20 95 -32
36 -11 67 -24 70 -28 3 -4 25 -12 50 -19 25 -7 50 -16 56 -21 6 -5 14 -6 17
-2 4 3 7 2 7 -3 0 -6 23 -16 50 -23 28 -7 50 -16 50 -20 0 -4 23 -13 50 -20
28 -7 50 -17 50 -22 0 -5 7 -9 15 -9 8 0 38 -13 67 -28 29 -16 69 -34 88 -42
19 -7 58 -23 85 -35 28 -12 61 -26 75 -30 14 -4 30 -11 35 -15 6 -4 28 -13 50
-20 21 -7 60 -24 86 -36 26 -13 52 -24 58 -24 6 0 11 -4 11 -8 0 -4 25 -16 55
-27 30 -10 55 -21 55 -25 0 -4 18 -13 40 -20 22 -7 40 -17 40 -21 0 -4 10 -11
22 -15 12 -3 28 -13 36 -20 7 -8 20 -14 28 -14 8 0 14 -4 14 -8 0 -4 17 -14
38 -21 20 -8 44 -19 52 -25 8 -7 35 -21 60 -31 25 -11 50 -23 55 -28 6 -4 63
-34 127 -66 64 -32 114 -61 111 -65 -4 -3 3 -6 13 -6 11 0 29 -8 40 -18 11
-10 25 -17 32 -14 6 2 12 -1 12 -7 0 -6 15 -17 34 -25 19 -8 38 -20 42 -28 5
-7 20 -19 34 -26 14 -7 43 -23 65 -36 22 -13 63 -36 90 -51 28 -15 52 -31 55
-35 3 -3 37 -24 75 -45 39 -21 98 -58 132 -82 34 -24 66 -43 70 -43 5 0 14 -9
21 -20 7 -11 18 -20 25 -20 6 -1 28 -14 47 -30 19 -17 39 -30 44 -30 5 0 16
-7 25 -15 9 -9 45 -35 80 -58 35 -23 76 -51 91 -62 15 -11 40 -29 56 -40 16
-11 35 -25 42 -32 7 -7 16 -13 20 -13 4 0 24 -15 44 -33 20 -17 53 -43 73 -57
20 -14 63 -46 95 -72 33 -27 64 -48 69 -48 6 0 14 -6 18 -13 4 -6 25 -25 46
-40 20 -16 48 -38 61 -50 40 -36 66 -57 66 -53 0 2 15 -10 33 -27 36 -34 85
-76 157 -132 48 -38 150 -129 235 -210 29 -27 67 -62 86 -77 81 -65 708 -698
709 -716 0 -1 24 -26 53 -55 71 -72 117 -125 150 -173 15 -22 54 -69 87 -105
106 -112 134 -145 175 -204 22 -32 54 -74 70 -95 17 -21 39 -50 50 -66 11 -15
29 -36 39 -46 11 -10 17 -18 13 -18 -4 0 5 -13 20 -28 15 -16 39 -43 53 -61
14 -18 33 -42 43 -53 9 -12 17 -26 17 -32 1 -6 14 -27 30 -46 17 -19 30 -38
30 -42 0 -4 8 -17 18 -27 23 -26 30 -36 77 -106 22 -33 43 -61 48 -63 4 -2 7
-8 7 -13 0 -11 36 -63 63 -91 9 -10 17 -22 17 -26 0 -5 8 -17 18 -28 17 -19
51 -67 66 -91 10 -18 0 -16 -20 5 -14 13 -35 17 -93 17 -71 0 -80 -2 -136 -39
-83 -54 -113 -89 -121 -142 -7 -50 3 -133 18 -151 6 -7 7 -13 4 -13 -8 0 7
-18 55 -68 58 -58 66 -63 137 -74 37 -6 70 -16 73 -21 4 -5 15 -8 25 -5 11 2
26 -3 35 -13 15 -15 14 -19 -13 -48 -17 -18 -34 -48 -40 -68 -11 -41 -1 -133
15 -133 6 0 7 -3 4 -6 -12 -12 59 -72 97 -83 39 -10 116 4 116 21 0 5 7 8 16
8 8 0 29 14 46 30 16 17 34 30 40 30 6 0 8 6 5 14 -3 7 -1 18 4 23 18 18 -2
62 -38 83 -40 23 -80 25 -107 5 -31 -24 -48 -19 -44 12 2 19 12 32 33 42 17 8
33 18 36 23 8 12 68 4 112 -16 62 -28 118 -73 152 -124 l32 -47 -63 3 c-56 3
-69 0 -108 -25 -54 -35 -81 -90 -72 -150 7 -50 18 -73 63 -127 14 -16 11 -20
-50 -50 -49 -25 -56 -35 -72 -98 -19 -70 -6 -119 38 -150 17 -12 34 -25 37
-29 11 -15 90 -31 141 -28 l54 4 -3 -54 c-2 -30 1 -58 7 -64 6 -6 11 -21 11
-33 0 -27 34 -70 70 -89 58 -30 156 -13 207 35 27 25 63 92 63 117 0 11 3 14
8 7 4 -6 17 -14 30 -18 12 -4 22 -12 22 -17 0 -5 8 -9 18 -9 26 0 62 -29 62
-50 0 -10 5 -20 11 -22 14 -5 18 -176 4 -186 -6 -4 -16 -19 -24 -33 -16 -32
-50 -49 -97 -49 -38 0 -44 22 -8 28 69 13 85 103 26 147 -27 20 -94 24 -115 7
-7 -5 -27 -13 -44 -17 -35 -7 -73 -46 -73 -75 0 -9 -3 -20 -7 -24 -12 -12 -15
-59 -4 -81 5 -11 12 -32 15 -47 9 -39 89 -85 165 -94 54 -6 61 -9 61 -28 0
-12 -4 -26 -9 -31 -31 -33 -43 -264 -15 -303 8 -12 12 -22 8 -22 -6 0 29 -34
71 -68 46 -38 194 -39 264 -1 20 10 41 19 47 19 25 0 84 108 84 155 0 46 -38
136 -73 173 -40 42 -97 72 -136 72 -20 0 -41 -11 -67 -35 -20 -19 -38 -34 -40
-32 -6 6 19 87 27 87 5 0 8 3 7 8 -1 4 4 21 11 37 7 17 15 44 18 60 3 17 9 35
14 40 4 6 13 52 20 102 12 95 -2 264 -22 271 -5 2 0 14 13 27 13 13 29 31 37
40 19 24 17 122 -3 160 -22 41 -20 54 8 66 13 6 41 34 62 62 35 45 39 57 39
107 -1 55 -8 71 -49 108 -10 9 -24 23 -31 29 -20 19 -112 36 -156 29 l-39 -6
0 73 c0 82 -15 137 -36 137 -8 0 -14 4 -14 9 0 4 -22 17 -49 29 -41 17 -55 18
-90 9 -22 -6 -58 -25 -78 -43 -28 -24 -39 -29 -49 -20 -6 6 -10 14 -7 18 2 4
-5 18 -16 30 -12 12 -21 28 -21 35 0 7 -4 13 -10 13 -5 0 -10 6 -10 14 0 7
-11 29 -23 48 -13 19 -27 46 -30 60 -4 15 -14 33 -22 42 -8 8 -20 25 -25 38
-6 13 -24 43 -40 68 -16 25 -48 79 -71 120 -23 41 -60 99 -81 128 -21 28 -35
52 -31 52 4 0 0 5 -9 11 -10 5 -18 17 -18 24 0 8 -5 15 -11 15 -5 0 -7 5 -4
10 3 6 2 10 -2 10 -8 0 -49 62 -45 68 2 2 -11 20 -40 52 -9 10 -19 27 -22 38
-4 11 -29 50 -56 87 -28 36 -50 69 -50 72 0 3 -11 16 -26 29 -14 13 -22 24
-19 24 7 0 -12 24 -37 48 -10 9 -18 21 -18 28 0 6 -9 19 -20 29 -11 10 -20 23
-20 29 0 7 -13 27 -30 46 -16 19 -29 40 -30 47 0 6 -3 13 -8 15 -7 3 -115 142
-137 176 -13 21 -28 39 -127 156 -46 54 -90 108 -98 119 -8 12 -29 36 -47 53
-17 18 -29 34 -27 37 3 3 -5 16 -18 30 -13 14 -52 57 -88 97 -36 40 -85 94
-110 122 -25 27 -67 76 -95 108 -54 64 -693 710 -702 710 -3 0 -20 15 -37 33
-17 19 -52 49 -76 68 -43 33 -63 50 -204 180 -54 49 -140 122 -231 194 -127
101 -163 133 -157 140 4 5 1 5 -6 0 -9 -5 -23 3 -40 21 -15 16 -61 54 -102 85
-76 56 -93 68 -248 174 -48 33 -92 65 -98 70 -6 6 -23 19 -39 30 -15 11 -36
28 -47 38 -10 9 -21 17 -24 17 -3 0 -24 15 -47 33 -41 32 -143 97 -153 97 -3
0 -20 11 -38 25 -18 14 -35 25 -39 25 -7 0 -136 84 -157 102 -8 7 -28 19 -43
25 -15 7 -27 17 -27 22 0 5 -8 11 -17 15 -10 3 -31 15 -48 26 -16 11 -48 29
-70 41 -22 12 -42 24 -45 28 -3 3 -25 16 -50 28 -69 35 -194 102 -205 111 -5
4 -25 15 -42 22 -18 8 -33 19 -33 23 0 5 -4 5 -10 2 -5 -3 -10 -2 -10 2 0 5
-17 15 -37 22 -20 8 -44 22 -53 32 -15 19 -249 139 -269 139 -6 0 -11 5 -11
10 0 6 -5 10 -11 10 -7 0 -46 16 -88 36 -147 69 -157 74 -169 74 -7 0 -12 4
-12 9 0 4 -20 14 -45 21 -24 7 -42 16 -39 21 3 5 -2 6 -10 3 -9 -3 -16 -1 -16
5 0 6 -7 11 -15 11 -8 0 -15 4 -15 10 0 5 -12 13 -27 16 -16 4 -39 13 -53 20
-39 20 -159 74 -166 74 -3 0 -24 9 -47 19 -24 11 -62 26 -85 33 -23 7 -42 16
-42 20 0 3 -15 9 -32 13 -18 4 -44 14 -56 22 -13 8 -26 12 -29 9 -3 -3 -15 1
-27 9 -11 8 -26 15 -34 15 -7 0 -32 8 -55 19 -23 10 -57 22 -74 26 -18 3 -33
10 -33 15 0 4 -18 11 -40 15 -22 4 -40 10 -40 15 0 5 -18 11 -40 15 -22 4 -40
10 -40 14 0 5 -30 16 -67 26 -38 10 -72 21 -78 25 -5 4 -39 15 -75 25 -36 9
-69 21 -75 25 -5 4 -35 13 -65 20 -30 7 -61 17 -67 23 -7 5 -13 6 -13 2 0 -4
-6 -3 -12 2 -7 5 -40 16 -73 23 -33 8 -62 17 -65 20 -3 3 -43 15 -90 25 -47
10 -87 22 -90 25 -3 4 -34 13 -70 20 -36 7 -69 16 -75 20 -5 4 -45 13 -87 20
-43 7 -78 17 -78 21 0 5 -16 9 -35 9 -19 0 -35 4 -35 8 0 5 -46 17 -102 27
-57 9 -107 21 -113 25 -5 4 -48 13 -95 20 -47 7 -89 16 -95 20 -5 4 -64 15
-130 25 -66 10 -124 21 -130 25 -5 4 -79 16 -162 25 -84 10 -153 21 -153 25 0
4 -60 12 -132 19 -73 7 -137 16 -143 21 -5 4 -48 11 -95 15 -47 4 -155 13
-240 21 -600 56 -1098 66 -1765 37z m10425 -5625 c0 -5 10 -19 23 -34 12 -14
22 -29 21 -32 0 -4 5 -13 10 -20 25 -30 32 -39 44 -60 16 -29 15 -31 -8 -25
-11 3 -20 9 -20 13 0 4 -26 11 -57 14 -81 9 -167 27 -173 35 -3 4 -21 12 -40
18 -31 10 -32 11 -9 12 33 1 90 21 106 37 7 7 18 14 24 16 7 2 14 30 17 61 l4
56 29 -42 c16 -23 29 -45 29 -49z m-21326 -8307 c3 -5 21 -12 39 -15 19 -4 54
-24 77 -45 38 -34 42 -41 31 -55 -35 -42 -198 0 -212 55 -9 38 47 90 65 60z"/>
<path d="M18099 18315 c-31 -8 -80 -25 -110 -38 l-55 -24 -103 -217 c-430
-909 -736 -1712 -890 -2336 -185 -750 -414 -1984 -501 -2700 -6 -47 -15 -115
-20 -153 -6 -37 -10 -85 -10 -107 0 -21 -4 -61 -10 -87 -11 -55 -35 -412 -50
-748 -11 -241 -40 -710 -65 -1075 -8 -118 -18 -257 -21 -308 l-6 -94 -137 7
c-211 11 -361 43 -361 77 0 7 7 54 16 103 43 254 58 453 58 745 0 277 -11 379
-59 545 -61 216 -171 363 -329 441 -72 35 -87 39 -176 42 -81 4 -109 0 -163
-17 -228 -76 -454 -355 -543 -670 -26 -92 -27 -99 -21 -295 14 -529 138 -877
410 -1151 l99 -100 -51 -205 c-227 -901 -542 -1886 -769 -2400 -28 -63 -90
-209 -137 -325 -208 -507 -380 -795 -564 -949 -185 -153 -224 -169 -285 -115
-62 54 -179 270 -250 462 -127 342 -351 1243 -397 1599 l-11 87 132 248 c283
534 413 826 504 1133 48 163 51 188 51 520 -1 261 -3 328 -18 390 -48 213
-178 334 -373 348 -336 23 -675 -354 -807 -898 -64 -260 -97 -638 -104 -1160
l-5 -415 -127 -195 c-71 -107 -134 -205 -142 -217 -33 -50 -158 -234 -211
-309 -32 -45 -58 -85 -58 -89 0 -5 -8 -18 -19 -29 -10 -12 -41 -53 -67 -92
-272 -396 -434 -594 -487 -594 -49 0 -63 32 -131 309 -80 321 -81 334 -81 886
1 576 32 1089 101 1665 36 298 27 419 -42 570 -82 179 -238 198 -437 53 -36
-27 -55 -51 -81 -106 -19 -40 -68 -143 -110 -230 -85 -180 -153 -302 -239
-432 -121 -182 -205 -272 -377 -402 -208 -157 -397 -253 -595 -303 -120 -31
-413 -64 -429 -49 -6 5 -27 9 -49 9 -37 0 -229 21 -235 25 -16 12 249 890 377
1248 99 277 120 327 246 582 127 260 166 356 189 467 20 96 19 131 -2 188 -34
88 -164 151 -313 152 -156 1 -248 -56 -322 -199 -85 -166 -394 -905 -526
-1263 -40 -107 -81 -217 -91 -245 -11 -27 -25 -75 -31 -105 -6 -30 -17 -64
-24 -75 -7 -11 -19 -47 -25 -80 -14 -67 -67 -264 -106 -393 -23 -75 -28 -84
-47 -79 -12 2 -191 47 -397 100 -410 104 -648 161 -772 182 -267 47 -810 62
-1131 30 -246 -24 -531 -77 -667 -125 -14 -4 -52 -16 -85 -26 -33 -10 -71 -24
-85 -31 -14 -7 -31 -13 -38 -13 -7 0 -34 -11 -60 -25 -26 -14 -54 -25 -63 -25
-9 0 -22 -7 -29 -15 -7 -8 -31 -20 -54 -26 -50 -13 -149 -66 -416 -222 -499
-292 -680 -416 -756 -519 -53 -73 -64 -109 -64 -217 0 -71 4 -90 26 -132 52
-94 138 -132 301 -133 l112 -1 33 31 c54 51 244 192 378 280 552 361 1097 569
1645 624 161 17 454 8 610 -19 555 -94 1168 -239 1322 -312 102 -49 102 -53
13 -529 -124 -663 -156 -1018 -147 -1670 12 -892 134 -1734 343 -2369 66 -198
98 -261 172 -335 69 -69 145 -107 228 -114 173 -14 278 72 306 252 17 110 1
204 -76 449 -213 674 -320 1202 -346 1710 -16 308 8 984 50 1392 42 410 94
722 154 919 l26 85 338 -1 c553 -1 746 26 989 142 193 91 482 275 637 404 43
36 80 66 81 66 1 0 1 -249 1 -552 -1 -841 30 -1144 149 -1463 178 -474 429
-681 747 -614 245 51 628 439 1063 1076 50 72 91 130 92 129 1 -1 23 -83 48
-181 136 -529 283 -960 431 -1257 127 -255 234 -383 385 -457 398 -197 899 25
1286 569 144 203 199 317 482 1005 360 874 611 1574 681 1905 26 123 67 275
152 563 47 157 65 207 77 207 9 0 102 -11 206 -25 105 -14 236 -28 293 -31
l102 -7 0 -197 c0 -579 50 -1732 100 -2320 40 -460 65 -635 156 -1085 244
-1198 390 -1678 626 -2055 202 -321 379 -507 560 -589 146 -67 314 -65 465 3
66 31 164 127 212 208 85 146 152 362 192 623 27 177 38 620 20 811 -37 389
-214 1081 -492 1914 -172 518 -259 747 -619 1620 -313 760 -452 1110 -447
1124 3 7 77 36 164 65 202 65 413 169 600 294 189 127 306 195 476 277 405
195 840 327 1272 386 174 24 527 24 673 1 251 -40 582 -134 1077 -307 594
-206 836 -269 1200 -312 141 -16 518 -16 660 0 149 17 383 65 535 108 322 93
672 262 778 378 113 122 52 359 -113 441 -31 16 -61 20 -135 20 l-95 0 -230
-112 c-267 -131 -343 -162 -497 -203 -182 -48 -301 -63 -513 -63 -396 0 -720
72 -1285 283 -279 105 -477 168 -695 220 -817 199 -1601 166 -2394 -99 -342
-115 -562 -213 -776 -347 -321 -201 -682 -393 -802 -428 l-53 -15 0 93 c0 310
64 1404 105 1796 31 288 132 1042 166 1235 6 32 19 118 29 190 19 140 89 543
146 848 122 656 384 1540 666 2247 61 153 208 483 352 794 62 132 76 189 83
331 5 96 2 132 -11 178 -39 135 -141 182 -307 142z m-2859 -6955 c22 -188 32
-451 17 -466 -13 -13 -43 32 -77 114 -98 232 -104 475 -17 682 l31 75 12 -110
c7 -60 22 -193 34 -295z m1651 -2843 c6 -29 20 -63 30 -76 11 -13 19 -34 19
-46 0 -12 9 -33 19 -47 11 -13 24 -44 30 -68 13 -49 16 -58 55 -141 14 -31 26
-62 26 -68 0 -7 9 -26 20 -41 11 -16 23 -43 27 -62 3 -18 15 -48 25 -66 10
-18 23 -54 29 -80 7 -26 17 -54 24 -62 7 -8 18 -37 25 -65 7 -27 20 -58 28
-67 8 -10 18 -38 23 -63 5 -26 18 -58 29 -72 11 -14 20 -36 20 -49 0 -12 4
-25 9 -29 5 -3 13 -20 17 -37 3 -18 10 -39 14 -48 21 -40 40 -90 40 -104 0 -9
4 -24 9 -34 21 -40 41 -91 41 -106 0 -9 9 -29 19 -44 11 -15 25 -57 31 -94 7
-37 18 -72 26 -78 7 -7 18 -37 24 -68 7 -31 18 -64 25 -72 8 -8 16 -28 20 -45
6 -30 19 -64 36 -97 5 -9 12 -35 15 -58 4 -22 11 -43 15 -46 5 -3 9 -15 9 -27
0 -22 25 -107 41 -138 4 -9 11 -34 15 -55 3 -22 13 -46 20 -54 7 -9 18 -49 25
-90 7 -41 18 -82 25 -90 7 -9 21 -63 30 -120 9 -58 23 -112 30 -120 7 -8 16
-43 20 -78 3 -34 11 -65 15 -68 5 -3 9 -20 9 -39 0 -19 4 -36 9 -40 5 -3 13
-36 16 -73 4 -37 11 -71 15 -77 4 -5 10 -30 13 -55 4 -25 10 -72 16 -105 5
-33 10 -97 10 -142 1 -45 6 -85 11 -88 6 -4 10 -63 10 -145 0 -82 -4 -141 -10
-145 -5 -3 -10 -43 -11 -88 0 -45 -5 -107 -9 -137 -5 -30 -12 -77 -16 -105 -3
-27 -10 -54 -14 -60 -4 -5 -10 -28 -13 -51 -9 -57 -36 -107 -54 -100 -8 3 -19
6 -24 6 -8 0 -44 49 -75 101 -6 11 -18 27 -26 36 -8 10 -21 34 -28 53 -7 19
-22 44 -32 56 -10 11 -18 27 -18 35 0 8 -11 31 -25 51 -14 20 -25 43 -25 51 0
8 -7 20 -15 27 -8 7 -15 20 -15 30 0 9 -11 39 -25 66 -14 27 -25 54 -25 61 0
7 -8 27 -18 45 -11 18 -25 58 -32 88 -7 30 -19 62 -26 71 -8 8 -19 42 -25 75
-7 32 -18 66 -25 75 -8 8 -19 42 -25 75 -7 32 -18 66 -25 74 -7 9 -16 36 -20
60 -4 25 -10 50 -14 55 -5 6 -11 31 -15 58 -4 26 -11 50 -16 53 -5 3 -9 16 -9
29 0 13 -4 26 -9 29 -5 3 -12 30 -16 61 -3 30 -11 57 -16 60 -5 4 -9 19 -9 35
0 16 -4 31 -9 34 -5 3 -12 34 -16 68 -4 35 -14 74 -22 87 -8 13 -22 83 -32
156 -9 73 -21 138 -28 146 -6 8 -17 61 -24 119 -7 58 -18 112 -25 120 -6 8
-17 56 -23 105 -6 50 -16 115 -21 145 -5 30 -14 96 -20 145 -6 50 -15 104 -20
120 -5 17 -12 85 -16 153 -4 67 -11 125 -16 128 -4 3 -8 33 -8 68 0 34 -4 66
-9 71 -5 6 -12 87 -16 180 -5 109 -12 177 -20 190 -9 14 -16 116 -24 335 -14
388 -20 478 -32 486 -5 3 -9 10 -9 16 0 29 30 -19 41 -65z"/>
<path d="M21205 8970 c3 -5 -3 -10 -14 -10 -25 0 -101 -50 -101 -66 0 -7 -8
-19 -19 -26 -10 -7 -22 -24 -26 -38 -4 -14 -10 -27 -14 -30 -25 -20 -31 -60
-31 -195 0 -80 4 -145 9 -145 9 0 20 -27 26 -65 12 -70 27 -121 40 -135 8 -9
15 -25 15 -34 0 -10 9 -31 21 -47 11 -16 17 -29 12 -29 -4 0 0 -5 10 -11 10
-6 22 -20 28 -32 8 -20 17 -36 41 -71 4 -6 23 -30 42 -52 20 -23 36 -44 36
-47 0 -10 137 -147 146 -147 6 0 30 -20 54 -45 24 -24 46 -42 50 -40 4 3 30
-19 58 -48 58 -61 82 -77 117 -77 24 0 25 2 25 65 0 36 -4 65 -9 65 -5 0 -12
38 -16 85 -4 47 -10 85 -13 85 -4 0 -5 22 -4 50 3 36 0 51 -10 55 -9 4 -12 18
-10 47 3 26 1 38 -6 34 -6 -4 -13 32 -17 99 -4 58 -11 107 -15 110 -4 3 -11
38 -15 77 -4 40 -11 78 -15 83 -4 6 -10 46 -14 89 -3 44 -10 83 -16 86 -5 3
-14 39 -20 80 -6 44 -18 86 -30 101 -10 15 -22 39 -26 53 -3 14 -9 26 -13 26
-4 0 -21 13 -37 30 -16 16 -34 30 -40 30 -6 0 -17 7 -24 15 -7 8 -21 15 -31
15 -11 0 -19 5 -19 10 0 6 -29 10 -66 10 -41 0 -63 -4 -59 -10z"/>
<path d="M23767 8513 c-4 -3 -7 -30 -7 -59 0 -38 4 -53 16 -58 9 -3 72 -6 140
-6 l124 0 0 -385 0 -385 75 0 75 0 0 385 0 385 129 0 c91 0 131 4 138 13 5 6
9 35 9 62 l-1 50 -346 3 c-190 1 -348 -1 -352 -5z"/>
<path d="M24530 8070 l0 -450 75 0 75 0 0 200 0 200 200 0 200 0 0 -200 0
-200 75 0 75 0 0 450 0 450 -75 0 -75 0 0 -180 0 -180 -200 0 -200 0 0 180 0
180 -75 0 -75 0 0 -450z"/>
<path d="M25390 8070 l0 -450 270 0 270 0 0 60 0 60 -200 0 -200 0 0 140 0
140 178 2 177 3 0 65 0 65 -177 3 -178 2 0 115 0 115 179 0 c131 0 181 3 187
13 8 10 10 51 5 105 -1 9 -59 12 -256 12 l-255 0 0 -450z"/>
<path d="M20427 7864 c-3 -3 -43 -7 -89 -8 -97 -4 -210 -26 -216 -44 -2 -7
-13 -12 -24 -12 -33 0 -151 -42 -183 -65 -16 -12 -41 -25 -53 -30 -26 -8 -88
-71 -112 -114 -8 -14 -19 -29 -24 -32 -5 -4 -6 -16 -3 -27 2 -12 0 -23 -6 -25
-17 -5 -21 -152 -7 -213 7 -29 17 -51 22 -48 4 3 8 -2 8 -10 0 -8 21 -32 47
-53 l46 -38 127 0 c90 1 132 4 143 14 9 7 21 10 26 6 6 -3 35 6 64 20 30 14
59 25 65 25 6 0 12 3 14 8 5 11 75 62 87 62 5 0 23 12 40 26 18 15 36 22 43
18 7 -4 10 -4 6 1 -5 5 2 14 15 21 63 35 186 94 196 94 11 0 82 31 91 40 3 3
16 6 30 7 47 4 90 15 90 24 0 5 11 9 25 9 14 0 25 3 25 8 0 8 297 6 325 -3 26
-9 66 -25 88 -37 10 -5 22 -6 27 -3 5 3 11 1 15 -5 10 -16 51 -11 68 8 10 10
17 30 17 43 0 24 -12 35 -80 72 -19 11 -38 25 -42 31 -4 6 -8 7 -8 1 0 -6 -3
-6 -8 0 -4 6 -34 24 -67 39 -33 16 -80 38 -105 50 -25 11 -46 24 -48 29 -2 4
-15 7 -28 7 -13 0 -24 4 -24 8 0 4 -28 14 -62 21 -34 7 -67 19 -72 26 -13 16
-127 37 -224 40 -41 2 -76 6 -79 9 -8 8 -178 8 -186 0z"/>
<path d="M30310 7461 c0 -4 -19 -11 -42 -14 -38 -5 -128 -44 -183 -79 -22 -15
-187 -178 -179 -178 3 0 -3 -12 -14 -27 -27 -38 -62 -118 -62 -140 0 -11 -5
-24 -12 -31 -13 -13 -25 -301 -13 -329 4 -10 7 -31 6 -46 -2 -15 2 -33 7 -40
5 -7 13 -27 17 -45 9 -44 35 -94 56 -110 10 -7 16 -19 13 -27 -4 -9 0 -15 10
-15 8 0 22 -13 30 -29 25 -48 165 -153 223 -167 15 -4 34 -12 42 -18 9 -7 83
-11 215 -11 221 0 259 7 386 68 l65 32 3 293 2 292 -235 0 -235 0 0 -85 0 -85
138 0 137 0 -3 -142 c-2 -113 -6 -146 -19 -160 -9 -10 -19 -15 -23 -13 -5 3
-10 0 -12 -7 -5 -13 -286 -28 -310 -17 -7 4 -42 21 -78 38 -74 35 -140 85
-140 107 0 8 -4 14 -9 14 -11 0 -51 75 -51 94 0 8 -5 16 -10 18 -6 2 -16 47
-22 101 -16 143 6 309 45 338 5 3 8 9 8 13 -6 34 113 159 177 185 17 7 32 18
32 23 0 5 5 6 11 2 6 -3 15 0 20 7 11 18 333 20 370 2 114 -55 160 -74 169
-68 6 3 10 49 10 106 l0 100 -30 6 c-16 3 -30 9 -30 13 0 4 -25 11 -55 15 -30
3 -57 11 -60 16 -8 11 -365 12 -365 0z"/>
<path d="M33446 7461 c-3 -4 -23 -11 -44 -15 -48 -7 -165 -66 -196 -98 -12
-13 -43 -42 -69 -66 -26 -24 -47 -50 -47 -58 0 -7 -4 -14 -8 -14 -4 0 -16 -20
-26 -45 -11 -25 -23 -45 -28 -45 -4 0 -8 -11 -8 -24 0 -13 -4 -26 -9 -28 -14
-5 -31 -157 -31 -278 0 -115 15 -239 30 -254 6 -6 10 -18 10 -28 0 -10 5 -18
10 -18 6 0 10 -8 10 -17 0 -26 85 -146 127 -182 21 -17 48 -40 60 -51 12 -11
26 -20 30 -20 4 0 22 -7 38 -16 80 -43 143 -54 301 -54 160 0 196 7 294 53 57
28 58 29 141 106 38 35 69 70 69 78 0 7 7 16 15 19 8 4 15 12 15 20 0 8 4 14
9 14 5 0 13 15 16 33 4 17 11 37 15 42 11 14 30 99 42 185 10 79 3 297 -11
315 -5 5 -11 26 -15 46 -7 41 -41 116 -64 142 -8 9 -12 17 -8 17 4 0 -14 25
-40 56 -68 80 -185 156 -260 170 -19 3 -37 10 -40 15 -7 12 -321 12 -328 0z
m337 -197 c20 -10 37 -22 37 -26 0 -4 5 -8 12 -8 15 0 98 -80 98 -95 0 -5 9
-21 19 -34 10 -14 17 -31 14 -38 -3 -7 2 -13 11 -13 9 0 13 -6 10 -14 -3 -8
-1 -17 4 -20 6 -3 8 -15 5 -25 -3 -10 0 -22 6 -25 15 -10 15 -302 0 -311 -5
-4 -9 -17 -9 -28 3 -30 -10 -67 -23 -67 -6 0 -8 -2 -5 -6 20 -19 -96 -164
-131 -164 -6 0 -11 -5 -11 -12 0 -6 -3 -8 -7 -5 -3 4 -15 0 -25 -10 -10 -9
-18 -12 -18 -7 0 5 -5 2 -10 -6 -8 -12 -37 -15 -158 -15 -104 0 -153 4 -164
12 -8 7 -18 10 -21 6 -4 -3 -7 -1 -7 5 0 6 -17 19 -37 29 -52 23 -97 67 -113
109 -8 19 -17 34 -22 34 -4 0 -8 7 -8 15 0 8 -5 15 -11 15 -5 0 -7 5 -4 10 3
6 3 16 -1 22 -9 14 -11 24 -20 83 -3 22 -8 47 -11 55 -8 24 -4 140 7 195 6 28
11 57 12 65 0 8 5 20 10 27 5 7 7 17 3 23 -3 5 -3 10 2 10 4 0 17 18 27 40 18
37 46 69 113 130 15 14 31 26 36 27 4 1 22 9 40 17 17 8 39 17 47 20 8 3 71 4
140 2 97 -2 133 -7 163 -22z"/>
<path d="M35040 7461 c0 -4 -19 -11 -42 -14 -47 -7 -156 -58 -207 -97 -53 -40
-111 -99 -111 -113 0 -7 -9 -18 -20 -25 -11 -7 -20 -17 -20 -23 0 -6 -9 -22
-20 -36 -11 -14 -20 -34 -20 -44 0 -11 -3 -19 -8 -19 -17 0 -56 -130 -47 -159
4 -12 2 -21 -4 -21 -7 0 -11 -43 -11 -125 0 -69 4 -125 9 -125 4 0 6 -12 3
-26 -2 -14 0 -35 6 -47 9 -20 24 -70 26 -90 1 -4 6 -11 11 -15 6 -4 19 -25 30
-47 11 -22 25 -44 32 -48 7 -4 13 -14 13 -22 0 -21 138 -143 170 -150 17 -4
30 -10 30 -15 0 -5 15 -12 33 -15 17 -4 38 -12 46 -19 21 -16 426 -15 443 2 6
6 18 12 26 12 19 0 106 41 114 54 4 6 8 43 8 82 0 82 -14 105 -53 86 -12 -7
-34 -16 -49 -22 -16 -5 -28 -14 -28 -19 0 -6 -6 -8 -14 -5 -8 3 -17 1 -21 -5
-3 -6 -16 -11 -29 -11 -12 0 -25 -3 -28 -6 -8 -8 -238 -7 -263 1 -11 4 -28 11
-38 16 -10 5 -22 7 -27 4 -6 -4 -10 -1 -10 5 0 6 -10 15 -22 20 -43 18 -103
66 -116 93 -7 15 -17 27 -23 27 -5 0 -9 9 -9 21 0 11 -4 18 -9 14 -5 -3 -15
20 -22 50 -7 30 -16 55 -21 55 -4 0 -8 20 -8 43 0 24 -3 46 -6 50 -9 9 -10
127 -1 127 4 0 7 20 7 45 0 25 5 45 10 45 6 0 10 11 10 24 0 38 21 86 37 86 9
0 13 6 10 14 -3 8 3 24 14 37 10 12 19 25 19 29 0 9 108 90 120 90 6 0 10 4
10 10 0 5 7 7 15 4 10 -4 15 0 15 12 0 9 3 14 7 11 3 -4 13 -1 21 6 11 8 63
12 176 12 146 0 164 -2 197 -21 20 -12 53 -27 74 -34 49 -16 55 -7 55 96 0 76
-2 83 -25 98 -14 9 -45 19 -70 23 -25 3 -48 10 -51 14 -7 12 -344 12 -344 0z"/>
<path d="M37610 7461 c0 -4 -20 -11 -44 -14 -58 -8 -127 -48 -185 -106 -52
-52 -77 -94 -67 -110 4 -6 2 -11 -4 -11 -17 0 -9 -232 8 -238 6 -2 12 -8 12
-13 0 -13 16 -32 74 -90 36 -35 89 -69 193 -121 79 -40 152 -79 161 -88 10 -8
24 -16 32 -18 7 -2 35 -26 62 -54 36 -38 47 -56 42 -71 -4 -13 -2 -17 5 -13 7
5 11 -4 11 -23 0 -17 -4 -31 -9 -31 -5 0 -7 -8 -5 -17 6 -25 -57 -88 -101
-103 -45 -15 -290 -9 -320 7 -32 18 -92 43 -103 43 -5 0 -15 7 -22 15 -7 8
-21 15 -31 15 -17 0 -19 -9 -19 -104 0 -71 4 -107 13 -113 6 -6 39 -19 72 -29
84 -26 406 -28 475 -2 80 29 114 51 162 101 36 38 49 59 54 93 3 24 10 44 15
44 5 0 9 38 9 85 0 47 -4 85 -9 85 -5 0 -12 16 -16 36 -3 20 -12 43 -18 51
-27 33 -104 113 -110 113 -3 0 -26 14 -52 31 -54 37 -155 89 -172 89 -7 0 -13
5 -13 11 0 5 -4 7 -10 4 -5 -3 -10 -1 -10 4 0 6 -6 11 -12 11 -22 1 -151 104
-169 135 -25 42 -23 89 5 133 54 84 97 98 287 90 107 -5 123 -8 159 -32 22
-14 51 -26 65 -26 25 0 25 0 25 94 0 104 -5 113 -64 123 -20 3 -39 10 -42 14
-7 12 -334 12 -334 0z"/>
<path d="M21626 7441 c-7 -11 3 -41 13 -41 4 0 7 -8 8 -17 3 -35 26 -128 33
-133 4 -3 10 -25 14 -50 4 -24 12 -50 18 -57 6 -7 7 -13 4 -13 -4 0 -1 -10 6
-22 6 -13 11 -33 9 -45 -1 -15 3 -23 12 -23 11 0 18 -23 28 -80 7 -44 16 -80
21 -80 4 0 8 -9 8 -19 0 -11 4 -22 9 -25 5 -4 12 -29 16 -56 4 -28 10 -50 13
-50 4 0 8 -10 9 -22 2 -34 24 -122 33 -133 5 -5 11 -31 15 -57 4 -27 11 -48
15 -48 5 0 11 -22 15 -50 4 -27 11 -52 15 -55 4 -3 11 -28 15 -55 4 -28 11
-50 15 -50 4 0 11 -22 15 -50 l7 -50 109 0 c108 0 110 0 119 26 6 14 10 36 10
50 0 13 4 24 10 24 5 0 12 23 16 50 4 28 10 53 15 56 5 2 11 27 15 54 4 28 10
50 14 50 4 0 11 21 15 48 4 26 11 49 16 52 5 3 10 16 12 28 2 12 6 25 10 28 4
4 7 17 7 29 0 11 4 25 8 31 5 5 14 41 22 79 7 39 17 75 22 81 5 7 11 35 15 63
3 28 10 51 14 51 5 0 9 11 9 24 0 14 5 28 10 31 6 4 10 14 9 23 -1 10 1 24 4
32 3 8 7 24 9 35 2 11 10 -17 17 -62 8 -46 17 -83 21 -83 4 0 10 -22 14 -50 4
-27 11 -52 17 -56 6 -3 8 -12 5 -20 -5 -13 2 -38 26 -91 6 -11 7 -26 4 -31 -4
-6 0 -17 7 -24 8 -7 12 -20 10 -29 -3 -9 0 -20 6 -23 6 -4 11 -20 11 -37 0
-16 5 -29 11 -29 5 0 8 -4 4 -9 -5 -9 -1 -20 26 -86 4 -11 11 -39 14 -62 4
-24 11 -45 16 -49 5 -3 9 -18 9 -35 0 -16 4 -29 10 -29 5 0 12 -23 16 -50 4
-28 10 -53 15 -56 4 -2 6 -11 2 -19 -4 -13 12 -15 106 -15 98 0 112 2 117 18
3 9 10 25 15 34 5 10 14 49 21 87 6 39 15 68 20 65 4 -3 8 8 8 25 0 16 5 33
11 37 6 3 9 15 6 25 -3 11 -2 19 3 19 4 0 10 22 14 50 4 27 11 52 15 55 5 3
12 28 16 55 4 27 11 52 16 56 5 3 9 16 9 29 0 13 5 27 11 31 6 3 9 15 6 25 -3
11 -1 19 4 19 5 0 9 13 9 29 0 17 4 33 10 36 5 3 12 28 16 55 4 28 11 50 16
50 6 0 8 12 5 26 -3 17 0 28 10 31 8 3 13 14 10 24 -3 11 -1 22 4 25 5 3 9 16
9 29 0 13 4 26 9 30 6 3 13 27 17 53 3 26 11 53 16 59 6 7 8 19 5 28 -4 8 -2
17 2 20 5 3 12 28 16 55 4 28 11 50 16 50 5 0 9 14 9 30 l0 30 -104 0 -104 0
-7 -60 c-4 -33 -10 -60 -14 -60 -10 0 -33 -89 -26 -101 4 -5 2 -9 -3 -9 -6 0
-13 -27 -17 -60 -4 -33 -11 -60 -15 -60 -4 0 -11 -22 -15 -50 -4 -27 -11 -50
-16 -50 -5 0 -9 -16 -9 -35 0 -19 -4 -35 -10 -35 -5 0 -10 -13 -10 -29 0 -17
-5 -33 -10 -36 -6 -4 -8 -15 -5 -25 3 -10 2 -21 -4 -24 -5 -3 -12 -29 -16 -56
-4 -28 -11 -50 -16 -50 -5 0 -9 -13 -9 -29 0 -17 -4 -32 -9 -36 -5 -3 -13 -30
-16 -60 -4 -30 -11 -55 -16 -55 -5 0 -9 -14 -9 -31 0 -46 -17 -25 -25 31 -4
28 -11 50 -16 50 -5 0 -7 11 -3 24 3 13 1 27 -5 30 -6 4 -11 18 -11 31 0 13
-4 26 -9 30 -5 3 -13 30 -16 60 -4 30 -11 55 -15 55 -5 0 -6 9 -3 20 3 11 0
20 -6 20 -6 0 -11 14 -11 30 0 17 -4 30 -9 30 -4 0 -11 23 -14 50 -3 28 -9 56
-14 63 -4 6 -8 18 -10 27 -10 63 -27 127 -37 135 -6 6 -12 30 -13 55 -1 25 -8
49 -16 55 -8 5 -17 33 -21 60 -5 28 -12 55 -18 62 -5 7 -7 17 -3 23 4 7 -27
10 -95 10 -91 0 -101 -2 -99 -17 2 -18 -4 -40 -23 -79 -5 -11 -8 -24 -7 -30 1
-5 -5 -26 -14 -46 -10 -21 -17 -46 -17 -57 0 -11 -5 -23 -11 -27 -6 -3 -9 -14
-6 -24 3 -11 -2 -21 -10 -24 -8 -3 -13 -14 -12 -23 1 -10 0 -25 -4 -33 -9 -26
-20 -75 -18 -84 1 -4 -3 -13 -8 -20 -5 -6 -12 -32 -16 -58 -4 -27 -11 -48 -15
-48 -4 0 -10 -22 -14 -48 -3 -27 -10 -52 -14 -56 -7 -8 -22 -61 -45 -164 -7
-30 -15 -51 -19 -47 -3 4 -5 -5 -4 -19 2 -15 -1 -29 -5 -32 -5 -3 -9 -17 -10
-32 l-1 -27 -10 30 c-5 17 -12 37 -15 45 -4 8 -5 21 -4 29 2 13 -6 35 -30 83
-5 10 -9 29 -9 43 0 14 -4 25 -9 25 -5 0 -12 23 -16 50 -4 28 -10 50 -15 50
-4 0 -10 22 -14 50 -4 27 -11 52 -15 55 -5 3 -12 32 -16 65 -4 33 -11 60 -16
60 -4 0 -11 23 -15 50 -4 28 -10 53 -15 55 -4 3 -11 27 -15 53 -3 26 -10 52
-14 57 -5 6 -11 31 -15 58 -4 26 -12 47 -17 47 -6 0 -8 6 -5 14 3 8 1 28 -6
45 l-11 31 -103 0 c-56 0 -104 -4 -107 -9z"/>
<path d="M23642 6808 l3 -643 362 -3 361 -2 4 81 c2 44 1 83 -1 85 -2 2 -123
4 -268 4 l-263 0 0 200 0 200 225 0 225 0 0 85 0 85 -225 0 -225 0 0 190 0
190 248 2 247 3 3 83 3 82 -351 0 -350 0 2 -642z"/>
<path d="M24750 6806 l0 -647 268 4 c250 3 334 11 387 36 11 6 40 19 65 31 74
34 153 93 175 131 6 9 26 35 46 56 20 21 39 51 43 66 3 15 11 27 16 27 6 0 10
9 10 20 0 11 4 20 8 20 11 0 35 87 27 99 -3 6 -1 11 4 11 7 0 11 58 11 175 0
96 -4 175 -9 175 -5 0 -9 10 -9 23 -1 38 -14 87 -23 87 -5 0 -9 9 -9 20 0 11
-4 20 -9 20 -5 0 -12 8 -15 18 -19 52 -103 147 -157 177 -65 37 -103 54 -132
60 -18 4 -38 12 -46 19 -10 7 -115 12 -333 14 l-318 4 0 -646z m525 464 c3 -5
17 -10 30 -10 13 0 27 -5 30 -10 4 -6 12 -9 18 -8 13 3 93 -42 143 -79 17 -12
43 -49 58 -80 15 -32 33 -67 38 -78 13 -23 27 -295 16 -295 -5 0 -8 -15 -8
-34 0 -19 -5 -38 -10 -41 -6 -4 -9 -12 -8 -18 7 -36 -120 -197 -156 -197 -7 0
-19 -6 -25 -14 -7 -8 -28 -17 -47 -21 -19 -3 -37 -12 -40 -19 -3 -8 -15 -11
-28 -9 -13 3 -27 0 -30 -6 -4 -6 -39 -11 -82 -11 -41 0 -74 -3 -74 -7 0 -5
-37 -8 -82 -8 l-83 0 0 478 0 477 167 0 c100 0 169 -4 173 -10z"/>
<path d="M26212 6808 l3 -643 270 1 c255 0 368 10 385 34 3 4 19 10 35 14 17
4 44 18 62 32 17 13 34 24 38 24 11 0 114 85 114 94 1 5 17 26 37 48 20 22 40
53 46 69 5 16 14 29 18 29 4 0 11 17 15 37 4 21 12 41 18 45 16 10 17 466 1
476 -6 4 -14 22 -17 39 -16 84 -138 229 -227 269 -72 33 -102 44 -119 44 -10
0 -21 6 -23 13 -4 9 -81 13 -331 15 l-327 4 2 -644z m528 462 c0 -5 14 -10 30
-10 17 0 30 -5 30 -11 0 -6 9 -9 20 -6 11 3 20 1 20 -4 0 -5 5 -9 10 -9 29 0
150 -94 150 -117 0 -8 6 -16 14 -19 9 -3 12 -12 9 -21 -4 -11 -2 -14 5 -9 7 4
12 2 12 -6 0 -7 7 -26 15 -42 8 -16 14 -34 13 -40 -1 -6 2 -21 6 -34 13 -40
12 -228 -2 -241 -7 -7 -10 -22 -6 -36 4 -15 2 -25 -4 -25 -6 0 -13 -17 -17
-39 -11 -69 -146 -199 -224 -216 -17 -3 -33 -11 -36 -16 -4 -5 -17 -9 -30 -9
-13 0 -27 -4 -30 -10 -3 -5 -39 -10 -80 -10 -41 0 -76 -3 -78 -7 -3 -5 -41 -7
-86 -5 l-81 4 0 474 0 474 170 0 c107 0 170 -4 170 -10z"/>
<path d="M27660 6812 c0 -483 3 -641 12 -650 7 -7 44 -12 94 -12 65 0 83 3 88
16 3 9 6 301 6 650 l0 634 -100 0 -100 0 0 -638z"/>
<path d="M28330 6812 c0 -483 3 -641 12 -650 8 -8 45 -12 100 -12 l88 0 0 511
0 511 33 -49 c17 -27 39 -62 47 -78 8 -17 20 -33 27 -38 14 -9 43 -65 43 -83
0 -7 6 -17 13 -21 14 -9 35 -41 43 -65 4 -10 12 -18 19 -18 11 0 40 -48 37
-62 -1 -4 7 -12 18 -18 11 -6 20 -17 20 -24 0 -8 7 -19 15 -26 8 -7 12 -16 9
-21 -3 -5 -1 -9 4 -9 6 0 15 -12 21 -27 10 -27 30 -62 41 -73 10 -10 70 -101
70 -106 0 -3 7 -12 15 -21 8 -8 13 -19 9 -24 -3 -5 7 -14 22 -19 15 -6 24 -13
21 -17 -8 -7 20 -57 51 -91 12 -14 22 -29 22 -34 0 -5 15 -29 33 -53 l32 -45
105 3 105 2 3 648 2 647 -95 0 -95 0 0 -507 c0 -532 1 -519 -37 -443 -4 8 -13
21 -20 28 -7 8 -11 18 -8 23 4 5 2 9 -4 9 -5 0 -19 19 -31 43 -31 62 -43 80
-62 95 -10 7 -18 19 -18 27 0 7 -3 15 -7 17 -9 4 -63 85 -63 93 1 3 -6 13 -15
21 -8 9 -15 22 -15 30 0 8 -4 14 -9 14 -5 0 -18 18 -29 39 -37 70 -47 86 -59
94 -7 4 -13 14 -13 21 0 8 -6 19 -14 26 -8 6 -12 18 -9 26 3 8 -1 14 -10 14
-9 0 -19 9 -22 20 -3 11 -11 20 -17 20 -5 0 -8 7 -4 15 3 9 0 15 -8 15 -8 0
-19 12 -25 28 -14 36 -33 65 -48 75 -7 4 -13 12 -13 17 0 5 -16 34 -35 64 -19
30 -35 60 -35 66 0 6 -46 10 -130 10 l-130 0 0 -638z"/>
<path d="M31980 6812 c0 -483 3 -641 12 -650 8 -8 45 -12 100 -12 l88 0 0 280
0 280 228 2 227 3 0 85 0 85 -230 5 -230 5 0 190 0 190 250 5 250 5 3 83 3 82
-351 0 -350 0 0 -638z"/>
<path d="M35890 7026 c0 -234 4 -427 9 -430 4 -3 11 -40 14 -82 3 -42 10 -80
15 -83 5 -3 12 -22 16 -41 3 -19 20 -51 36 -72 17 -20 30 -40 30 -45 1 -9 104
-83 117 -83 4 0 22 -8 38 -18 26 -14 58 -17 220 -17 162 0 194 3 220 17 17 10
36 18 43 18 6 0 12 4 12 9 0 5 8 11 18 15 29 10 92 58 92 70 0 3 14 25 30 49
17 25 30 52 30 61 0 9 4 16 10 16 5 0 12 23 16 50 4 28 11 53 15 56 5 3 9 214
9 470 l0 464 -90 0 -90 0 -4 -422 c-5 -534 -4 -498 -15 -498 -5 0 -12 -16 -15
-35 -4 -19 -11 -35 -16 -35 -6 0 -10 -6 -10 -14 0 -16 -77 -92 -90 -89 -6 2
-10 -1 -10 -6 0 -5 -10 -12 -22 -15 -34 -10 -207 -7 -250 5 -38 10 -117 82
-118 107 0 6 -4 12 -9 12 -5 0 -12 14 -16 30 -4 17 -10 30 -14 30 -4 0 -5 15
-3 34 2 18 -1 37 -7 40 -8 5 -11 135 -11 432 l0 424 -100 0 -100 0 0 -424z"/>
<path d="M21010 7341 c0 -4 -37 -11 -81 -14 -45 -3 -85 -10 -88 -15 -3 -6 -27
-16 -52 -22 -45 -11 -149 -94 -149 -118 0 -7 -4 -12 -10 -12 -5 0 -10 -7 -10
-15 0 -8 -4 -15 -10 -15 -5 0 -7 -7 -4 -15 4 -8 1 -15 -5 -15 -6 0 -11 -18
-11 -43 0 -35 5 -47 32 -71 l32 -27 133 3 c77 2 137 7 141 13 7 11 71 47 160
90 28 14 52 30 52 35 0 6 5 10 11 10 18 0 95 39 109 55 7 8 18 15 25 15 7 0
15 7 19 15 3 8 12 15 21 15 8 0 15 5 15 10 0 6 5 10 11 10 20 0 39 28 39 58 0
35 -16 42 -102 42 -31 0 -60 5 -63 10 -8 12 -215 14 -215 1z"/>
<path d="M1216 7178 c-9 -12 -16 -32 -16 -45 0 -12 -5 -25 -11 -29 -6 -3 -9
-20 -7 -36 3 -16 1 -31 -4 -34 -11 -7 -10 -207 1 -237 12 -32 92 -107 114
-107 10 0 20 -6 22 -12 7 -19 25 -222 34 -383 15 -254 24 -340 35 -348 6 -5
-5 -5 -24 -1 -19 3 -37 10 -40 13 -3 4 -24 13 -47 19 -24 7 -43 17 -43 22 0 6
-9 10 -19 10 -11 0 -23 5 -26 10 -3 6 -15 10 -26 10 -10 0 -19 7 -19 15 0 8
-17 23 -38 34 -39 20 -113 89 -111 105 0 5 -4 12 -10 16 -7 4 -12 50 -14 116
-2 108 -2 109 -37 153 -19 24 -44 47 -55 52 -11 5 -36 21 -55 34 -19 14 -43
31 -54 38 -10 6 -34 24 -54 40 -19 15 -42 27 -51 27 -45 -1 -68 -60 -34 -85
14 -11 18 -35 21 -144 3 -72 8 -131 13 -131 5 0 9 -11 9 -24 0 -17 15 -37 49
-65 42 -35 58 -42 110 -47 49 -6 62 -11 67 -27 7 -22 12 -29 60 -79 45 -49 94
-83 139 -99 22 -8 46 -20 53 -26 7 -7 20 -13 28 -13 8 0 14 -3 14 -8 0 -4 15
-13 33 -21 17 -8 60 -34 94 -58 34 -24 67 -42 73 -41 7 2 13 -8 14 -22 4 -45
17 -115 26 -135 4 -11 13 -47 19 -80 6 -33 15 -61 20 -63 4 -1 6 -13 4 -27 -3
-13 2 -34 11 -47 9 -12 16 -31 16 -41 0 -10 5 -28 12 -40 7 -12 13 -26 14 -32
7 -31 31 -83 46 -99 10 -10 15 -23 12 -28 -3 -4 -1 -8 5 -8 5 0 13 -10 17 -22
3 -13 12 -30 18 -38 7 -8 18 -33 25 -55 8 -21 20 -45 27 -53 26 -25 16 -35
-28 -28 -24 4 -44 11 -46 16 -2 6 -20 10 -41 10 -20 0 -41 4 -46 9 -6 5 -48
15 -95 21 -47 6 -89 15 -95 20 -5 4 -36 13 -67 20 -55 13 -58 15 -59 44 0 17
-6 45 -12 63 -13 33 -84 114 -132 148 -15 11 -32 25 -39 30 -41 36 -181 78
-241 73 l-40 -3 1 -119 c1 -82 5 -121 14 -126 7 -4 10 -12 6 -18 -7 -12 22
-72 35 -72 6 0 7 -4 4 -10 -7 -11 40 -56 70 -66 11 -4 23 -11 26 -15 3 -5 18
-11 35 -13 16 -2 51 -9 78 -16 29 -8 51 -9 55 -4 3 5 13 9 21 9 8 -1 20 2 25
6 21 15 51 12 95 -8 54 -25 145 -49 220 -57 117 -13 210 -30 210 -38 0 -4 7
-8 16 -8 29 0 154 -65 154 -80 0 -8 9 -21 20 -28 11 -7 20 -19 20 -27 0 -8 5
-15 12 -15 6 0 8 -3 5 -6 -4 -4 6 -21 21 -39 15 -17 34 -42 42 -55 8 -13 27
-34 43 -48 15 -14 27 -31 27 -39 0 -8 18 -31 40 -53 22 -22 40 -43 40 -48 0
-5 13 -26 30 -48 16 -21 30 -43 30 -48 0 -5 11 -24 25 -42 14 -18 25 -37 25
-42 0 -5 9 -17 20 -27 11 -10 20 -22 20 -28 0 -11 46 -49 72 -59 12 -5 27 1
45 16 26 23 27 25 13 65 -7 22 -16 41 -20 41 -3 0 -12 16 -19 35 -7 19 -22 47
-35 63 -12 15 -31 43 -43 62 l-20 36 39 -19 c24 -12 38 -26 38 -38 0 -10 4
-19 8 -19 5 0 17 -26 28 -57 10 -32 22 -60 25 -63 8 -7 20 -54 28 -118 6 -39
4 -55 -6 -63 -7 -6 -13 -17 -13 -24 0 -8 -5 -15 -11 -17 -13 -4 -28 -77 -29
-142 0 -46 3 -52 54 -103 51 -50 58 -53 104 -53 41 0 55 5 81 29 17 16 31 38
31 50 0 12 5 21 10 21 6 0 10 25 10 55 0 30 -4 55 -10 55 -5 0 -10 14 -10 30
0 17 -9 39 -20 50 -11 11 -20 24 -20 28 0 13 -36 43 -42 37 -7 -8 -28 52 -28
79 0 12 -4 26 -9 32 -4 5 -14 32 -21 59 -7 28 -18 56 -23 63 -7 9 -6 11 7 6 9
-3 16 -12 16 -19 0 -7 13 -21 29 -32 37 -23 114 -88 158 -133 32 -32 34 -38
28 -75 -20 -114 -11 -245 17 -245 6 0 8 -6 5 -13 -2 -7 11 -23 29 -37 29 -21
33 -31 34 -67 0 -24 -6 -48 -15 -57 -8 -8 -15 -18 -15 -23 0 -4 -27 -44 -59
-88 -33 -44 -57 -83 -55 -87 3 -4 -5 -12 -16 -18 -11 -6 -22 -21 -25 -33 -3
-12 -29 -37 -58 -55 -29 -19 -71 -59 -94 -90 -39 -51 -43 -61 -43 -113 0 -51
4 -61 31 -88 28 -28 35 -31 84 -28 48 3 60 9 103 48 60 55 88 126 66 168 -19
36 -18 47 11 89 14 20 25 44 25 52 0 9 7 25 15 36 8 12 11 24 8 28 -3 3 -1 6
5 6 6 0 14 10 18 22 7 22 7 22 14 2 5 -11 11 -51 15 -87 4 -37 11 -70 16 -73
16 -10 10 -86 -8 -107 -14 -14 -18 -39 -20 -100 -2 -73 1 -86 25 -124 27 -44
45 -53 100 -53 47 0 112 39 112 67 0 7 4 13 9 13 19 0 24 87 7 121 -26 51 -13
43 37 -24 26 -34 51 -67 56 -73 8 -10 56 -81 76 -113 5 -9 36 -49 67 -88 32
-40 58 -75 58 -77 0 -3 10 -16 23 -29 35 -38 89 -106 116 -145 31 -47 123
-156 240 -283 28 -31 51 -59 51 -64 0 -9 32 -45 199 -224 64 -68 130 -138 146
-157 17 -18 81 -84 143 -146 62 -62 130 -131 150 -152 68 -71 232 -225 302
-283 19 -16 62 -56 95 -89 33 -32 82 -77 109 -99 26 -22 69 -58 96 -80 26 -22
62 -51 80 -65 69 -53 84 -67 134 -119 90 -96 137 -137 171 -153 14 -6 25 -15
25 -20 0 -4 16 -16 35 -25 19 -9 35 -21 35 -26 0 -5 9 -7 20 -4 11 3 20 2 20
-3 0 -4 15 -13 33 -21 17 -7 34 -15 37 -19 14 -15 155 -40 228 -40 89 0 120
10 170 57 43 41 52 64 52 138 l0 67 -51 48 c-65 61 -99 70 -309 81 -91 4 -181
10 -200 13 -66 8 -165 35 -168 46 -2 5 -8 10 -14 10 -12 0 -82 53 -115 86 -13
12 -40 35 -60 51 -21 15 -42 34 -46 40 -4 7 -13 13 -18 13 -6 0 -34 24 -62 53
-29 29 -77 73 -107 97 -98 80 -385 354 -549 524 -47 50 -135 141 -196 203 -60
63 -110 117 -110 120 0 4 -17 25 -38 47 -21 23 -78 88 -128 146 -49 58 -104
120 -122 138 -18 17 -31 39 -29 47 2 8 -4 15 -12 15 -8 0 -30 21 -47 48 -18
26 -42 56 -53 68 -12 11 -30 33 -41 49 -23 32 -116 151 -139 178 -9 9 -13 17
-10 17 3 0 -7 15 -22 34 -16 19 -38 46 -49 61 -11 14 -28 34 -37 43 -10 9 -18
21 -18 27 0 6 -8 20 -18 31 -10 10 -33 42 -52 69 -19 28 -39 53 -45 57 -5 4
-6 8 -2 8 4 0 3 6 -3 13 -41 49 -59 88 -50 111 9 24 -14 107 -32 114 -5 2 -6
8 -3 13 8 11 -60 39 -96 39 -20 0 -41 13 -73 45 -44 43 -46 47 -46 105 0 48 3
60 16 60 23 0 94 43 94 58 0 6 2 12 5 12 11 0 85 -43 85 -49 0 -4 18 -14 40
-21 22 -7 40 -17 40 -21 0 -4 15 -13 34 -20 30 -11 33 -15 24 -32 -15 -29 8
-106 40 -134 15 -13 47 -37 72 -54 39 -26 51 -30 89 -25 53 7 64 16 90 70 22
45 30 156 11 156 -5 0 -10 9 -10 21 0 12 -8 23 -20 26 -11 3 -20 12 -20 19 0
15 -16 18 -122 18 -53 1 -71 5 -90 22 -13 12 -35 24 -50 28 -15 3 -33 12 -40
19 -7 7 -28 19 -46 25 -44 15 -92 62 -92 89 0 12 -4 33 -10 47 -8 22 -7 26 8
26 10 0 23 -5 30 -12 8 -8 64 -12 169 -13 156 -2 213 -9 213 -26 0 -5 16 -9
35 -9 19 0 35 -4 35 -10 0 -13 37 -13 45 0 3 6 15 10 26 10 10 0 19 4 19 9 0
6 12 16 27 23 15 7 26 17 24 22 -1 5 4 13 13 18 21 12 22 125 1 154 -8 12 -11
25 -7 29 4 5 1 5 -5 1 -7 -4 -13 -4 -13 1 0 26 -109 42 -167 25 -38 -12 -123
-94 -123 -119 0 -21 -5 -23 -52 -25 -141 -5 -374 17 -395 37 -9 9 -34 15 -63
15 -38 0 -50 4 -54 18 -5 16 -58 72 -127 134 -14 13 -37 29 -52 37 -15 8 -25
17 -22 20 3 2 11 -1 17 -7 15 -15 178 -17 178 -2 0 6 9 10 20 10 11 0 20 -4
20 -10 0 -5 7 -10 15 -10 8 0 15 5 15 10 0 16 80 12 86 -4 4 -10 28 -17 70
-21 35 -4 64 -11 64 -16 0 -5 9 -9 20 -9 11 0 20 4 20 9 0 5 9 13 21 16 22 7
65 45 52 45 -5 0 -2 4 6 9 9 6 16 32 19 68 4 55 2 60 -29 93 -33 34 -36 35
-111 35 -74 0 -92 5 -67 21 6 3 9 20 5 38 -13 74 -19 96 -26 96 -5 0 -11 8
-14 18 -6 19 -89 62 -119 62 -9 0 -19 -4 -22 -10 -3 -5 -14 -10 -23 -10 -28
-1 -55 -49 -60 -107 -5 -61 11 -107 48 -140 19 -17 21 -22 9 -23 -9 0 -19 -7
-23 -15 -3 -8 -11 -15 -19 -15 -7 0 -18 -5 -25 -12 -6 -6 -20 -14 -29 -17 -28
-8 -196 -2 -202 7 -4 5 -32 14 -63 21 -32 7 -58 16 -58 21 0 4 -21 11 -47 15
-47 7 -175 61 -181 77 -2 4 -12 8 -21 8 -10 0 -25 8 -35 18 -15 17 -15 25 -1
98 9 43 20 88 25 99 4 11 16 54 26 95 10 41 24 81 31 88 7 7 13 20 13 28 0 8
32 46 72 84 77 76 108 130 108 190 0 55 -55 230 -72 230 -4 0 -10 21 -14 48
-3 26 -13 55 -22 65 -16 18 -42 23 -42 8 0 -5 -8 -12 -18 -15 -10 -4 -26 -28
-36 -55 -10 -28 -24 -55 -31 -61 -7 -6 -16 -22 -20 -37 -3 -14 -12 -32 -20
-39 -37 -38 -46 -246 -11 -298 9 -14 14 -26 11 -26 -4 0 0 -7 9 -15 15 -15 12
-45 -4 -45 -5 0 -16 -34 -26 -75 -10 -41 -21 -75 -25 -75 -4 0 -13 -33 -20
-72 -16 -97 -25 -107 -58 -69 -61 69 -71 84 -77 107 -3 13 -10 24 -15 24 -5 0
-9 4 -9 10 0 15 -71 160 -78 160 -4 0 -15 21 -26 48 -10 26 -27 65 -37 87 -10
22 -22 55 -25 73 -4 18 -11 35 -15 38 -15 9 -10 71 6 88 8 8 15 21 15 30 0 8
5 18 10 21 5 3 10 15 10 26 0 10 4 19 8 19 9 0 42 70 42 88 0 7 4 12 10 12 5
0 16 23 24 51 9 28 20 57 25 63 4 6 14 35 21 64 6 28 16 52 21 52 5 0 9 9 9
21 0 13 11 25 33 34 57 23 125 92 139 138 6 23 16 48 21 54 6 8 6 23 -1 40 -6
16 -13 51 -17 78 -8 60 -25 126 -37 140 -4 5 -8 22 -8 37 0 21 -6 29 -24 34
-34 8 -64 -11 -81 -52 -8 -19 -21 -42 -30 -50 -8 -9 -15 -22 -15 -29 0 -8 -6
-18 -12 -22 -10 -6 -46 -69 -53 -93 -1 -3 -8 -18 -15 -35 -21 -48 -25 -166 -7
-202 14 -26 14 -36 2 -74 -7 -24 -23 -62 -34 -84 -12 -21 -21 -46 -21 -55 -1
-8 -9 -33 -20 -55 -11 -22 -20 -44 -20 -50 -1 -18 -60 -98 -60 -82 0 10 -4 17
-10 17 -5 0 -7 6 -4 14 3 8 1 17 -5 21 -6 3 -11 17 -11 31 0 13 -4 24 -9 24
-4 0 -6 11 -3 25 2 14 -1 31 -7 38 -6 8 -16 49 -22 93 -7 43 -16 82 -21 85 -4
3 -13 34 -19 70 -6 35 -14 73 -19 84 -15 36 -21 173 -7 187 6 7 18 25 26 41 8
15 18 27 23 27 4 0 8 5 8 11 0 6 9 24 20 39 11 16 20 32 19 37 -2 8 14 46 30
73 11 17 24 51 25 64 1 5 8 12 16 15 45 19 94 58 122 99 29 44 32 55 36 150 3
56 9 105 13 108 15 9 10 38 -10 62 -19 22 -41 29 -41 13 0 -5 -13 -14 -30 -20
-16 -5 -30 -14 -30 -18 0 -5 -15 -14 -34 -21 -18 -7 -44 -22 -57 -33 -13 -11
-28 -24 -34 -27 -5 -4 -19 -24 -30 -45 -15 -31 -19 -55 -16 -115 1 -42 7 -82
13 -89 7 -9 5 -17 -6 -28 -8 -9 -18 -31 -22 -50 -3 -19 -10 -35 -16 -35 -5 0
-8 -6 -7 -12 1 -7 -5 -28 -12 -46 l-14 -33 -12 83 c-7 46 -12 102 -13 126 0
27 -5 42 -12 42 -10 0 -10 2 -1 8 6 4 19 61 29 127 17 116 17 123 -1 188 -10
37 -21 67 -25 67 -4 0 -12 17 -18 39 -16 52 -91 121 -131 121 -20 0 -35 -8
-45 -22z m1626 -3156 c68 -77 21 -185 -66 -152 -23 8 -26 15 -26 55 0 44 10
71 39 108 19 23 23 22 53 -11z"/>
<path d="M25805 5641 c-11 -4 -30 -11 -42 -16 -13 -4 -23 -11 -23 -16 0 -5 -4
-8 -8 -6 -10 3 -82 -59 -82 -71 0 -5 -9 -19 -19 -31 -11 -13 -17 -29 -14 -37
3 -8 0 -14 -6 -14 -6 0 -11 -11 -11 -25 0 -14 -5 -25 -11 -25 -7 0 -10 -14 -7
-35 2 -19 0 -35 -5 -35 -13 0 0 -191 13 -204 6 -6 10 -18 10 -28 0 -10 5 -18
11 -18 6 0 8 -9 4 -21 -5 -15 -4 -19 4 -15 6 4 11 1 11 -8 0 -8 4 -16 9 -18 5
-1 35 -28 67 -58 l57 -54 128 -4 c91 -3 129 -1 129 7 0 6 3 10 8 9 17 -3 68
25 106 60 41 36 55 55 77 102 6 14 16 36 22 49 15 30 15 279 1 289 -5 4 -16
26 -23 50 -8 30 -29 59 -69 97 -31 30 -62 55 -69 55 -6 0 -13 6 -15 12 -5 15
-220 22 -253 9z m196 -119 c41 -22 99 -130 99 -183 0 -20 3 -39 7 -43 11 -11
12 -35 2 -42 -5 -3 -9 -23 -9 -45 0 -22 -5 -39 -11 -39 -6 0 -9 -9 -6 -20 3
-11 1 -20 -4 -20 -5 0 -9 -7 -9 -15 0 -8 -5 -15 -11 -15 -5 0 -7 -5 -4 -11 19
-29 -76 -84 -146 -84 -64 0 -149 47 -149 82 0 7 -4 13 -9 13 -5 0 -12 12 -16
27 -3 15 -10 30 -14 33 -12 7 -24 140 -14 140 5 0 7 18 5 40 -2 22 0 40 6 40
5 0 13 12 17 27 3 15 10 30 13 33 4 3 14 18 22 34 14 28 56 58 96 69 32 9 100
-1 135 -21z"/>
<path d="M28235 5641 c-11 -4 -30 -11 -42 -16 -13 -4 -23 -12 -23 -17 0 -5 -4
-7 -8 -4 -5 3 -22 -8 -37 -24 -16 -17 -35 -30 -42 -30 -7 0 -13 -8 -13 -19 0
-10 -7 -24 -16 -32 -8 -7 -13 -21 -11 -31 3 -10 1 -18 -4 -18 -5 0 -9 -8 -9
-18 0 -10 -6 -24 -12 -31 -18 -17 -17 -273 0 -279 7 -2 12 -10 12 -19 0 -26
33 -74 83 -122 27 -25 54 -48 60 -50 7 -2 15 -9 19 -15 5 -7 55 -11 141 -11
114 0 136 3 151 18 10 9 23 17 30 17 16 0 86 72 86 88 0 7 7 15 15 18 8 4 15
12 15 19 0 7 5 15 10 17 6 2 13 33 17 71 3 37 10 67 14 67 5 0 9 27 9 60 0 33
-4 60 -9 60 -4 0 -11 26 -14 57 -3 32 -11 59 -17 61 -5 2 -10 13 -10 24 0 22
-106 138 -126 138 -7 0 -14 5 -16 12 -5 14 -222 22 -253 9z m186 -113 c40 -24
66 -53 73 -83 4 -16 12 -33 18 -36 6 -4 13 -30 16 -58 2 -28 8 -51 13 -51 13
0 11 -38 -2 -45 -6 -4 -9 -22 -7 -40 1 -19 -1 -37 -5 -41 -4 -4 -7 -16 -7 -26
0 -10 -4 -18 -9 -18 -5 0 -12 -12 -16 -27 -14 -57 -79 -98 -156 -98 -67 0
-154 50 -142 81 3 8 -1 14 -11 14 -9 0 -16 3 -15 8 2 13 -13 52 -20 52 -4 0
-5 15 -3 34 2 18 -1 37 -7 40 -14 9 -14 66 0 66 7 0 10 15 7 40 -2 22 -1 40 3
40 7 0 22 39 20 53 -1 4 3 7 9 7 5 0 16 15 24 34 13 31 34 47 96 70 22 8 96
-2 121 -16z"/>
<path d="M29588 5643 c-16 -2 -28 -9 -28 -14 0 -5 -11 -9 -25 -9 -14 0 -25 -5
-25 -10 0 -6 -8 -14 -19 -18 -30 -11 -91 -70 -91 -87 0 -9 -6 -18 -14 -21 -8
-3 -12 -12 -9 -20 3 -9 -1 -14 -12 -14 -12 0 -16 -6 -12 -20 3 -11 1 -23 -4
-26 -5 -3 -9 -23 -9 -44 0 -21 -4 -42 -10 -45 -5 -3 -10 -26 -10 -51 0 -24 5
-44 10 -44 6 0 10 -20 10 -44 0 -25 4 -47 10 -51 5 -3 7 -12 4 -20 -4 -8 1
-18 10 -21 11 -4 15 -13 10 -26 -4 -13 -2 -18 4 -14 5 3 15 -1 22 -9 7 -8 9
-15 6 -15 -14 0 74 -79 96 -86 13 -3 26 -12 30 -18 11 -17 360 -15 366 2 2 6
12 12 23 12 18 0 19 9 19 179 0 120 -4 182 -11 187 -8 5 -164 8 -241 4 -5 0
-8 -22 -8 -50 l0 -50 68 0 67 0 0 -94 0 -94 -47 -6 c-53 -7 -148 2 -148 14 0
4 -12 11 -27 15 -40 9 -92 63 -99 102 -3 18 -10 36 -15 38 -4 3 -5 13 -2 21 3
9 0 33 -7 56 -11 33 -11 41 0 48 8 5 11 18 7 39 -4 17 -2 31 2 31 5 0 12 14
16 30 4 17 10 30 13 30 4 0 13 13 20 29 7 16 20 31 30 35 9 3 24 10 32 15 48
29 79 36 153 35 50 -1 83 -6 85 -13 2 -6 18 -11 37 -11 28 0 33 4 39 31 10 53
7 63 -30 82 -28 13 -58 17 -147 16 -62 -1 -124 -4 -139 -6z"/>
<path d="M23155 5627 c-3 -6 -4 -170 -3 -362 l3 -350 60 0 60 0 3 133 3 132
84 0 c47 0 85 3 85 8 0 4 19 16 43 26 44 21 87 58 87 76 0 5 5 10 11 10 5 0 8
4 4 9 -3 5 -1 12 5 16 5 3 10 46 10 95 0 49 -5 92 -10 95 -6 4 -8 10 -6 14 9
14 -38 56 -92 84 -51 26 -61 27 -198 27 -107 0 -146 -3 -149 -13z m245 -97 c0
-5 8 -10 19 -10 20 0 51 -39 51 -63 0 -8 7 -20 15 -27 14 -11 13 -14 -2 -25
-9 -7 -14 -19 -10 -27 6 -17 -58 -86 -69 -75 -4 4 -12 3 -18 -2 -6 -5 -31 -11
-56 -12 l-45 -4 -3 128 -3 127 61 0 c33 0 60 -4 60 -10z"/>
<path d="M24317 5634 c-4 -4 -7 -169 -7 -366 l0 -358 65 0 66 0 -3 160 -3 160
158 0 157 0 0 -160 0 -160 55 0 55 0 0 365 0 365 -55 0 -55 0 0 -145 0 -145
-157 0 -158 0 0 142 0 143 -55 3 c-31 2 -59 0 -63 -4z"/>
<path d="M26850 5590 l0 -50 110 0 111 0 -3 -315 -3 -315 58 0 57 0 0 315 0
315 111 0 110 0 -3 48 -3 47 -272 3 -273 2 0 -50z"/>
<path d="M30670 5275 l0 -365 60 0 60 0 0 155 0 155 35 0 c19 0 35 -4 35 -10
0 -5 13 -10 29 -10 36 0 70 -49 78 -110 3 -22 10 -40 14 -40 5 0 9 -15 9 -34
0 -19 4 -37 9 -40 4 -3 11 -19 14 -36 6 -30 7 -30 72 -30 68 0 90 14 67 43 -6
6 -13 33 -17 60 -4 26 -11 50 -16 53 -5 3 -6 16 -3 30 4 17 1 26 -10 30 -11 4
-14 13 -11 25 4 13 1 19 -8 19 -9 0 -17 14 -21 33 -4 20 -16 39 -34 50 -15 10
-20 17 -12 14 8 -2 25 9 38 25 13 15 29 28 35 28 21 0 37 52 37 120 0 67 -16
120 -36 120 -7 0 -19 11 -28 25 -9 14 -21 23 -26 20 -5 -3 -11 -1 -15 5 -3 5
-15 10 -26 10 -10 0 -19 5 -19 10 0 6 -58 10 -155 10 l-155 0 0 -365z m253
253 c42 -24 67 -52 67 -75 0 -13 6 -23 13 -24 10 0 10 -2 0 -6 -7 -2 -13 -15
-13 -27 0 -12 -12 -33 -26 -47 -21 -20 -38 -24 -100 -27 l-74 -4 0 111 0 111
55 0 c30 0 65 -6 78 -12z"/>
<path d="M32026 5621 c-10 -11 -15 -24 -12 -30 4 -5 2 -12 -4 -16 -5 -3 -10
-15 -10 -26 0 -10 -4 -19 -9 -19 -5 0 -11 -19 -15 -42 -4 -23 -12 -48 -18 -55
-5 -7 -8 -19 -5 -27 3 -8 0 -17 -8 -19 -7 -3 -16 -24 -20 -46 -4 -23 -10 -43
-15 -46 -4 -3 -11 -20 -14 -39 -4 -20 -13 -48 -21 -63 -8 -15 -17 -47 -21 -70
-3 -24 -10 -43 -15 -43 -5 0 -9 -8 -9 -18 0 -10 -4 -22 -9 -28 -8 -9 -31 -92
-31 -113 0 -7 27 -11 70 -11 68 0 70 1 70 24 0 14 5 28 11 32 6 3 9 17 6 30
-2 13 0 24 4 24 5 0 9 7 9 15 0 8 4 23 9 33 5 9 12 25 15 35 5 15 19 17 116
17 103 0 110 -1 110 -20 0 -11 4 -20 9 -20 5 0 7 -9 4 -20 -3 -12 1 -22 10
-26 9 -3 13 -13 10 -25 -3 -10 0 -19 6 -19 5 0 8 -6 5 -14 -3 -7 1 -20 9 -27
7 -8 12 -20 9 -27 -3 -10 12 -12 65 -10 63 3 68 5 71 27 2 13 -1 28 -7 34 -6
6 -11 21 -11 34 0 13 -4 23 -9 23 -5 0 -12 18 -16 40 -4 22 -11 40 -16 40 -4
0 -6 7 -3 15 4 8 2 21 -4 28 -5 6 -13 28 -17 47 -4 19 -11 40 -15 45 -4 6 -11
29 -15 52 -3 23 -13 44 -21 47 -9 3 -13 10 -9 15 3 5 1 12 -4 15 -5 4 -12 24
-16 46 -4 22 -10 40 -15 40 -4 0 -10 19 -14 42 -4 22 -10 46 -14 52 -4 6 -12
27 -17 46 -11 35 -11 35 -76 38 -55 2 -68 0 -83 -17z m80 -198 c7 -10 14 -26
14 -35 0 -10 4 -18 9 -18 6 0 13 -20 17 -45 3 -25 10 -45 15 -45 5 0 6 -7 2
-16 -3 -9 0 -20 8 -25 9 -5 -15 -9 -63 -9 l-77 0 6 33 c3 17 11 35 16 38 5 4
7 14 4 23 -4 9 -2 16 3 16 5 0 12 23 16 50 7 55 10 58 30 33z"/>
<path d="M33095 5627 c-3 -6 -4 -170 -3 -362 l3 -350 63 -3 62 -3 0 136 0 135
85 0 c47 0 85 3 85 8 0 7 72 42 88 42 4 0 21 19 37 43 27 38 30 50 33 137 4
122 -10 152 -94 197 -58 31 -61 31 -207 32 -110 1 -149 -2 -152 -12z m257 -99
c38 -22 68 -56 68 -78 0 -11 5 -20 10 -20 6 0 10 -7 10 -16 0 -8 -5 -12 -11
-8 -7 4 -9 -2 -7 -17 2 -17 -7 -33 -33 -56 -20 -18 -43 -33 -52 -33 -9 0 -18
-3 -21 -8 -2 -4 -25 -6 -50 -4 l-46 4 0 124 0 124 55 0 c30 0 65 -6 77 -12z"/>
<path d="M34277 5633 c-4 -3 -7 -168 -7 -365 l0 -358 60 0 60 0 0 160 0 160
158 0 157 0 -3 -160 -3 -160 61 0 60 0 0 365 0 366 -57 -3 -58 -3 0 -143 0
-142 -157 0 -158 0 0 145 0 145 -53 0 c-30 0 -57 -3 -60 -7z"/>
<path d="M35483 5624 c-4 -10 -2 -19 5 -22 7 -2 12 -10 12 -17 0 -7 11 -26 24
-42 12 -15 21 -34 19 -40 -3 -7 0 -13 5 -13 6 0 13 -13 17 -30 4 -16 11 -30
16 -30 5 0 9 -6 9 -12 0 -7 9 -24 20 -38 11 -14 20 -31 20 -38 0 -7 9 -22 20
-34 10 -12 17 -25 14 -30 -3 -4 0 -8 5 -8 6 0 11 -8 11 -18 0 -10 7 -27 15
-38 11 -14 14 -52 15 -161 l0 -143 60 0 60 0 0 140 c0 111 4 148 17 180 10 22
21 40 26 40 4 0 6 4 2 9 -3 5 2 16 10 24 8 9 15 20 15 26 0 6 4 11 9 11 5 0
12 14 16 31 4 17 13 33 21 36 8 3 14 11 14 19 0 8 5 14 10 14 6 0 10 8 10 19
0 10 6 24 14 30 8 7 18 26 21 42 4 16 11 27 16 23 5 -3 9 4 9 16 0 11 7 23 15
26 8 4 15 15 15 25 0 17 -8 19 -66 19 -72 0 -79 -4 -109 -65 -11 -22 -23 -42
-26 -45 -4 -3 -12 -24 -18 -47 -7 -24 -16 -43 -21 -43 -6 0 -10 -7 -10 -16 0
-8 -7 -22 -15 -30 -8 -9 -15 -24 -15 -36 0 -11 -5 -18 -12 -15 -7 2 -12 11
-10 21 2 9 -4 16 -12 16 -10 0 -13 6 -9 17 4 11 3 14 -5 9 -7 -4 -12 -2 -12 3
0 19 -34 91 -43 91 -4 0 -5 5 -1 11 3 6 3 14 -2 18 -5 3 -21 29 -36 56 l-27
50 -65 3 c-55 2 -67 0 -73 -14z"/>
</g>
</svg>
